<?xml version="1.0" encoding="UTF-8"?>
<!-- Created with Inkscape (http://www.inkscape.org/) -->
<svg width="294.78mm" height="156.87mm" version="1.1" viewBox="0 0 294.78 156.87" xmlns="http://www.w3.org/2000/svg" xmlns:cc="http://creativecommons.org/ns#" xmlns:dc="http://purl.org/dc/elements/1.1/" xmlns:rdf="http://www.w3.org/1999/02/22-rdf-syntax-ns#">
 <metadata>
  <rdf:RDF>
   <cc:Work rdf:about="">
    <dc:format>image/svg+xml</dc:format>
    <dc:type rdf:resource="http://purl.org/dc/dcmitype/StillImage"/>
    <dc:title/>
   </cc:Work>
  </rdf:RDF>
 </metadata>
 <g transform="translate(173.28 -117.43)">
  <g transform="matrix(.26458 0 0 .26458 -173.28 127.68)" fill="#6c63ff">
   <path d="m1028.8 430.1q-1.8617 4.0124-3.7128 7.9178-2.8889 6.0667-5.7029 11.898c-0.8346 1.7226-1.6691 3.4132-2.4823 5.1038-9.2018 18.799-17.794 35.427-25.091 49.101a78.332 78.332 0 0 1-68.275 41.408l-162.26 1.7654h-1.712l-25.808 0.27819-36.486 0.39589h-1.4766l-18.575 0.20329h-0.56708l-114.49 1.2412-102.19 1.07-11.887 0.12839-73.828 0.80248h-0.0856l-47.881 0.51359h-0.51358l-151.4 1.637-45.292 0.49218a94.232 94.232 0 0 1-28.536-4.0873 92.435 92.435 0 0 1-41.825-26.482c-19.452-21.431-33.629-46.437-43.152-73.571q-2.065-5.8741-3.8519-11.898c-32.966-111.44 7.2223-255.21 79.552-351.42q4.5474-6.0346 9.2445-11.77l0.0749-0.0856c22.245-27.306 47.186-50.117 73.753-66.338 47.079-28.793 99.24-36.903 150.54-12.733 43.409 20.458 83.939 30.077 123.23 32.688 3.9696 0.25679 7.9392 0.44939 11.887 0.56708 90.123 2.8354 174.59-29.638 273.77-50.599 3.9482-0.83458 7.9071-1.6585 11.898-2.4395 70.757-14.081 149.25-21.506 242.59-5.8955a202.32 202.32 0 0 1 28.632 6.8478q6.1737 1.9901 11.898 4.2799c44.554 18.125 68.852 51.615 79.178 93.579q1.4659 5.842 2.5359 11.887c18.307 100.94-35.309 244.12-81.714 343.51z" opacity=".1"/>
   <g transform="matrix(1.0626 0 0 1.0626 -.68293 -34.689)" opacity=".1" stroke-width=".94109">
    <path transform="translate(-79.34,-172.91)" d="m242.24 217v509.62l-42.33 0.46a88.07 88.07 0 0 1-26.67-3.82v-444.26h0.07c20.79-25.55 44.1-46.87 68.93-62z"/>
    <path transform="translate(-79.34,-172.91)" d="m1117.2 290.08h-952.64q4.25-5.64 8.64-11v-0.08h941.63q1.37 5.43 2.37 11.08z"/>
    <path transform="translate(-79.34,-172.91)" d="m1040.8 191.51v427h-3.47q-2.7 5.67-5.33 11.12c-0.78 1.61-1.56 3.19-2.32 4.77v-446.93q5.77 1.86 11.12 4.04z"/>
    <path transform="translate(-79.34,-172.91)" d="m776.21 186.58v534.25l-11.12 0.12v-532.09c3.69-0.78 7.39-1.55 11.12-2.28z"/>
    <path transform="translate(-79.34,-172.91)" d="m509.22 236.15v487.58l-11.11 0.12v-488.23c3.71 0.24 7.42 0.38 11.11 0.53z"/>
    <path transform="translate(-79.34,-172.91)" d="m1037.4 618.52q-2.7 5.67-5.33 11.12h-938.17q-1.93-5.49-3.6-11.12z"/>
   </g>
  </g>
 </g>
</svg>
