<?xml version="1.0" encoding="UTF-8"?>
<!-- Created with Inkscape (http://www.inkscape.org/) -->
<svg width="229.54mm" height="100.75mm" version="1.1" viewBox="0 0 229.54 100.75" xmlns="http://www.w3.org/2000/svg" xmlns:cc="http://creativecommons.org/ns#" xmlns:dc="http://purl.org/dc/elements/1.1/" xmlns:rdf="http://www.w3.org/1999/02/22-rdf-syntax-ns#">
 <defs>
  <linearGradient id="dff037aa-d578-4bab-81e7-399360663117" x1="597.75" x2="597.75" y1="725.44" y2="347.69" gradientTransform="translate(-15.1,-171.86)" gradientUnits="userSpaceOnUse">
   <stop stop-color="gray" stop-opacity=".25" offset="0"/>
   <stop stop-color="gray" stop-opacity=".12" offset=".54"/>
   <stop stop-color="gray" stop-opacity=".1" offset="1"/>
  </linearGradient>
 </defs>
 <metadata>
  <rdf:RDF>
   <cc:Work rdf:about="">
    <dc:format>image/svg+xml</dc:format>
    <dc:type rdf:resource="http://purl.org/dc/dcmitype/StillImage"/>
    <dc:title/>
   </cc:Work>
  </rdf:RDF>
 </metadata>
 <g transform="translate(145.36 -173.41)">
  <g transform="matrix(.26458 0 0 .26458 -173.28 127.68)">
   <polygon transform="matrix(1.1453 0 0 1 -15.417 0)" points="632.89 548.78 632.37 548.78 525.39 549.77 349.78 551.4 349.63 551.4 304.98 551.82 304.5 551.83 106.1 553.65 106.1 538.65 152.75 510.65 246.35 509.87 248.35 509.86 249.01 509.85 251.01 509.82 295.95 509.45 297.96 509.44 298.6 509.43 300.6 509.42 315.01 509.3 315.39 509.29 350.94 508.99 351.23 508.99 628.63 506.65 635.42 506.6 636.1 506.6 641.28 506.55 678.93 506.24 680.93 506.21 682.78 506.19 683.74 506.19 695.45 506.1 697.77 506.07 700.88 506.05 710.63 505.96 726.1 505.83 728.1 505.81 731.58 505.79 732.23 505.79 806.94 505.15 863.1 533.65 863.1 546.65 711.18 548.05 709.56 548.08 651.82 548.61 650.44 548.63" fill="#65617d" stroke-width=".93441"/>
   <polygon transform="matrix(1.1453 0 0 1 -15.417 0)" points="632.89 548.78 632.37 548.78 525.39 549.77 349.78 551.4 349.63 551.4 304.98 551.82 304.5 551.83 106.1 553.65 106.1 538.65 152.75 510.65 246.35 509.87 248.35 509.86 249.01 509.85 251.01 509.82 295.95 509.45 297.96 509.44 298.6 509.43 300.6 509.42 315.01 509.3 315.39 509.29 350.94 508.99 351.23 508.99 628.63 506.65 635.42 506.6 636.1 506.6 641.28 506.55 678.93 506.24 680.93 506.21 682.78 506.19 683.74 506.19 695.45 506.1 697.77 506.07 700.88 506.05 710.63 505.96 726.1 505.83 728.1 505.81 731.58 505.79 732.23 505.79 806.94 505.15 863.1 533.65 863.1 546.65 711.18 548.05 709.56 548.08 651.82 548.61 650.44 548.63" opacity=".2" stroke-width=".93441"/>
   <path d="m722.93 262.82v215.21a6.7886 5.118 0 0 1-6.534 5.054l-325.26 6.5254a6.7886 5.118 0 0 1-6.7886-5.054v-221.74a6.7886 5.118 0 0 1 6.7037-5.054h325.17a6.7886 5.118 0 0 1 6.7037 5.054z" fill="#65617d"/>
   <polygon transform="matrix(1.7416 0 0 1.315 -294.48 -146.66)" points="574.6 467.4 397.1 471.4 397.1 319.15 574.6 319.15" fill="#d4dfec" stroke-width=".66079"/>
   <polygon transform="matrix(1.1453 0 0 1 -15.417 0)" points="106.1 538.65 308.61 537.32 309.09 537.32 350.08 537.04 350.27 537.04 633.35 535.17 633.64 535.17 633.81 535.16 634.28 535.16 639.07 535.13 640.53 535.13 715.02 534.63 719.42 534.61 720.4 534.6 863.1 533.65 863.1 546.65 711.18 548.05 709.56 548.08 651.82 548.61 650.44 548.63 632.89 548.78 632.37 548.78 525.39 549.77 349.78 551.4 349.63 551.4 304.98 551.82 304.5 551.83 106.1 553.65" opacity=".1" stroke-width=".93441"/>
   <path d="m368.64 553.23c0-0.11 0.06-0.23 0.1-0.35 1-3.59 2.78-9.66 4.11-14.51 0.17-0.6 0.33-1.19 0.48-1.75 1.47-5.47 4.33-18.28 5.92-26.27 0.56-2.81 1-5 1.09-6.1 0.2-1.69 3.21-8.92 6.62-17.23 2.39-5.84 5-12.22 6.91-17.6a61.38 61.38 0 0 0 2.93-9.85 5.1 5.1 0 0 0 0-2.13 14.69 14.69 0 0 1-0.48-3.5c-0.23-6.2 1.62-16 4.48-20.11 3.5-5 6-23.66 6-23.66s5.18 0.75 6-3.53a6.15 6.15 0 0 0 0.1-1.4 7.41 7.41 0 0 0-0.09-1.11c-0.89-6.24 14.72-12.88 23.5-14.31a19.67 19.67 0 0 1 3-0.28 27.24 27.24 0 0 0 6.25-1.44q1.4-0.43 3-1c3.68-1.24 8.08-2.88 12.75-4.68 17.56-6.81 38.82-16 38.82-16 0.15-0.71 0.32-1.39 0.51-2.06a27.71 27.71 0 0 1 16.35-18.93v-2c0-3.45-0.15-7-0.3-10.54 0-0.69-0.06-1.38-0.1-2.07v-0.61-0.52c0-0.7-0.07-1.4-0.11-2.09l-0.18-0.14a16.41 16.41 0 0 1-3.9-4.2 15.27 15.27 0 0 1-1.42-3c-1.25-3.39-1.54-7.17-2.38-10.75l-0.18-0.74a84 84 0 0 0-4-10.58c-2.21-5.42-3.91-11-5.6-16.65q-1.54-5.13-3.11-10.28l-1.58-5.24c-0.3-1-0.6-2-0.83-3a13.27 13.27 0 0 1-0.26-1.4 10 10 0 0 1 0.24-4.61 32.09 32.09 0 0 1 1.32-3 7.87 7.87 0 0 0 0.5-1.38 3 3 0 0 0 0.08-0.32 5.65 5.65 0 0 0 0.11-1.08 18.46 18.46 0 0 0-0.52-3.89 0.07 0.07 0 0 1 0-0.05 2.56 2.56 0 0 0-0.05-0.27 25.48 25.48 0 0 1-0.36-3 28.45 28.45 0 0 1 3.47-15.57l0.19-0.36a25.22 25.22 0 0 1 1.84-2.78c0.31-0.42 0.63-0.82 1-1.22-1.4 1.34-3.7 0.75-5-0.69a3.61 3.61 0 0 1-0.55-0.75 3.81 3.81 0 0 1-0.23-0.45c-0.05-0.12-0.09-0.25-0.13-0.38-0.7-2.45 0.52-5.06 2.12-7.05a18.49 18.49 0 0 1 5.74-4.7 3.84 3.84 0 0 1 0.4-0.21 17.12 17.12 0 0 1 2.64-1.06 15.06 15.06 0 0 1 1.63-0.44l-3.71-0.34-1.5-0.14a14.49 14.49 0 0 1 13-10.91h1.08a11.73 11.73 0 0 1 1.57 0.13 4.44 4.44 0 0 1-2.65-4.33 14.41 14.41 0 0 0 9.19 3.06h0.38a30 30 0 0 1-0.34-3.27 33.19 33.19 0 0 1 0-4.46 8.44 8.44 0 0 0 6.78 2.26l-2.08-2.9a9.49 9.49 0 0 0 6.56 2.05l0.48-0.05a7 7 0 0 0 1.19-0.23h0.09c-0.19-0.24-0.36-0.49-0.53-0.75l-0.06-0.12a9.67 9.67 0 0 1-1-2.09 6.59 6.59 0 0 1-0.24-0.87 8.75 8.75 0 0 1 0.45-5.45c3.23 2.7 6.77 6.39 11 3.6s4.37-7.91 11-7.39a10.2 10.2 0 0 1 8.41 6.12 6.75 6.75 0 0 1 7.67-1.75 6.85 6.85 0 0 1 3.88 6.89c2.75-0.69 5.71-1.37 8.35-0.33s4.34 4.41 2.84 6.66a1.43 1.43 0 0 1-0.14 0.2c-1.23 1.59-3.95 2.46-3.66 4.46l0.42 0.3 1.3 0.94q7.65 5.52 14.9 11.6c2.48 2.08 5.12 4.58 5.29 7.83a8.64 8.64 0 0 1-0.24 2.37c-0.16 0.78-0.38 1.56-0.55 2.34a19.51 19.51 0 0 0-0.34 6.05c0.07 0.59 0.16 1.17 0.27 1.76 1.53 7.73 7.71 14.11 8.32 22v0.56a17.78 17.78 0 0 1-0.07 2.53c-0.46 4.8-2.68 9.41-4.48 14-0.11 0.28-0.22 0.56-0.32 0.84-3.47 9-5.47 18.59-7 28.16a100.26 100.26 0 0 1-2 10.09 26.73 26.73 0 0 1-5.09 10.43 16.22 16.22 0 0 1-3.36 3 18.67 18.67 0 0 1-2.65 1.41v0.06c0.11 0.61 0.2 1.22 0.31 1.83 0.06 0.32 0.11 0.64 0.17 1a0.14 0.14 0 0 0 0 0.06c0.84 4.73 1.8 9.36 2.81 13.76l0.51 2.19c12.6 4.55 14.09 13.87 14.18 17.44a9.64 9.64 0 0 1 0 1.43s19 0.5 26.5 6a20.34 20.34 0 0 0 4.51 2.3 83 83 0 0 0 9.25 2.89c1.61 0.42 3.29 0.83 5 1.23 3 0.69 6.18 1.36 9.25 2 8.19 1.65 15.9 3 19.81 4 9.33 2.36 30.67 22.82 30.67 22.82s2.5 20.64 5 23.65 7 13.59 7 13.59l16.54 29.41 7 12.37h4.5c0.62 0 1.84 0.88 3.21 2.1 1.19 1.06 2.51 2.38 3.67 3.58l1.92 2.05 1.2 1.33s7.27 0.18 9.24 5.93c5.92-0.17 13.19 0.22 18.28 2.5a14.14 14.14 0 0 1 2 1.08 8.68 8.68 0 0 1 4.13 5.66 8.34 8.34 0 0 1 0.18 1.44v1.7c-0.36 7.57-5.29 13.87-9.82 18.11l0.32 0.57s-0.15 0.36-0.44 1c-0.08 0.19-0.18 0.4-0.29 0.64-0.59 1.26-1.53 3.15-2.76 5.36a63.31 63.31 0 0 1-9.57 13.17l-0.29 0.3-57.74 0.53-0.17-0.2-11.2-13.36-5.57-6.64-0.17-0.21-0.16 1.59-0.54 5.3-1.3 12.81-0.07 0.64v0.17l-0.15 1.48 0.11-1.48h-0.29l-107 1-175.62 1.94v0.84h-0.14v-0.84l-44.75 0.48z" fill="url(#dff037aa-d578-4bab-81e7-399360663117)"/>
   <path d="m602.81 375.51s-99.5 12-90 0c3.44-4.34 4.39-17.2 4.2-31.85-0.06-4.45-0.22-9.06-0.45-13.65-1.1-22-3.75-43.5-3.75-43.5s87-41 77-8.5c-4 13.13-2.69 31.57 0.35 48.88 0.89 5.05 1.92 10 3 14.7a344.67 344.67 0 0 0 9.65 33.92z" fill="#deaa87"/>
   <path d="m602.81 375.51s-99.5 12-90 0c3.44-4.34 4.39-17.2 4.2-31.85 15.17-6.48 34.47-1.65 34.47-1.65 20.32-4.05 33.35-3.26 41.68-0.42a344.67 344.67 0 0 0 9.65 33.92z" opacity=".1"/>
   <path d="m413.95 550.88v-0.84l175.62-1.91 107-1h0.3l-0.11 1.48 0.15-1.48h0.19v-0.17l1.37-13.45 0.52-5.09 0.16-1.59 0.14-1.33 6.18-20.61 6.18-20.58 5.2-17.33 7.94-26.48s-4.5-10.5-7-13.5-5-23.5-5-23.5-21.34-20.33-30.67-22.67c-3.91-1-11.63-2.33-19.83-4-3.07-0.62-6.22-1.28-9.25-2-1.71-0.39-3.39-0.8-5-1.21a87.91 87.91 0 0 1-9.25-2.86 20.7 20.7 0 0 1-4.5-2.29c-7.35-5.39-25.77-6-26.48-6a0.42 0.42 0 0 1 0-0.07v-0.09a10.26 10.26 0 0 0 0-1.26c0-0.4 0-0.87-0.09-1.4 0-0.16 0-0.33-0.07-0.5-0.05-0.36-0.11-0.74-0.2-1.14a5 5 0 0 0-0.12-0.53 17.21 17.21 0 0 0-1.25-3.49c-0.07-0.16-0.16-0.33-0.24-0.49a18.25 18.25 0 0 0-1.7-2.63c-0.13-0.17-0.27-0.35-0.42-0.52a19.58 19.58 0 0 0-2.72-2.64c-0.27-0.21-0.55-0.43-0.84-0.63a4.67 4.67 0 0 0-0.51-0.36l-0.89-0.58-0.83-0.48c-0.73-0.4-1.5-0.79-2.34-1.16-0.26-0.12-0.54-0.23-0.82-0.34s-0.72-0.28-1.09-0.42h-0.06l-0.75-0.3c-0.57-0.19-1.15-0.36-1.76-0.53l-0.93-0.24-1-0.23-1-0.21c-1-0.2-2.07-0.38-3.19-0.52l-1.14-0.14-1.17-0.12-1.21-0.1-1.72-0.1-2-0.07a124.68 124.68 0 0 0-26.24 2.79 72.27 72.27 0 0 0-18.26-1.68h-0.87l-1 0.06h-0.64l-1.29 0.12c-0.43 0-0.87 0.09-1.3 0.15s-0.88 0.11-1.31 0.18l-0.66 0.11c-0.65 0.11-1.31 0.23-2 0.37q-0.33 0.06-0.66 0.15c-0.87 0.19-1.74 0.42-2.6 0.68-0.43 0.12-0.86 0.26-1.29 0.41-0.22 0.06-0.43 0.14-0.64 0.22l-0.64 0.23-0.63 0.25-0.75 0.3c-0.38 0.16-0.75 0.33-1.12 0.51-0.21 0.09-0.42 0.19-0.62 0.3s-0.41 0.2-0.6 0.31a27.75 27.75 0 0 0-6.21 4.38l-0.51 0.49-0.5 0.51c-0.17 0.17-0.33 0.35-0.49 0.53a23.82 23.82 0 0 0-1.82 2.25c-0.16 0.21-0.31 0.42-0.46 0.64a26.69 26.69 0 0 0-1.72 2.92c-0.13 0.24-0.25 0.49-0.37 0.73a32.7 32.7 0 0 0-2 5.25q-0.28 1-0.51 2s-21.17 9.34-38.73 16.1c-4.67 1.8-9.07 3.43-12.75 4.66-1.07 0.36-2.07 0.69-3 1a26.7 26.7 0 0 1-6.25 1.44 19.67 19.67 0 0 0-3 0.28c-8.07 1.31-21.9 7-23.41 12.71a3.69 3.69 0 0 0-0.1 1.4v0.11c1 7-6 6-6 6s-2.5 18.5-6 23.5c-2.53 3.6-4.26 11.63-4.48 17.69a19.61 19.61 0 0 0 0.44 5.63v0.14c0.4 1.34-0.56 5-2.19 9.69-1.77 5.15-4.35 11.55-6.83 17.59-3.74 9.12-7.26 17.4-7.48 19.22-0.09 0.81-0.35 2.26-0.71 4.13-1.46 7.62-4.7 22.13-6.3 28-1.19 4.38-2.92 10.38-4.11 14.5 0 0.12-0.07 0.24-0.1 0.35l44.83-0.44v0.84h0.14z" fill="#6c63ff"/>
   <path d="m430.31 433.01s57 29.5 77.5 26z" opacity=".1"/>
   <path d="m546.31 421.01s55.5 18 74 20.5-74-20.5-74-20.5z" opacity=".1"/>
   <path d="m607.87 363.09c-29 5.34-83.6 4.19-107.2 3.38 8.65-31 50.83-20.46 50.83-20.46 52.21-10.42 56.21 11.2 56.37 17.08z" opacity=".1"/>
   <path d="m607.87 361.09c-29 5.34-83.6 4.19-107.2 3.38 8.65-31 50.83-20.46 50.83-20.46 52.21-10.42 56.21 11.2 56.37 17.08z" fill="#6c63ff"/>
   <path d="m766.56 495.11s39.124-5.25 39.891 9.75c0.76736 15-19.951 25.48-19.951 25.48z" fill="#deaa87"/>
   <path d="m539.43 185.84a9.47 9.47 0 0 1-8.32-1.75l2.08 2.89a8.47 8.47 0 0 1-6.78-2.25 34.08 34.08 0 0 0 0.32 7.75 14.52 14.52 0 0 1-9.56-3 4.42 4.42 0 0 0 2.64 4.31 14.34 14.34 0 0 0-15.6 10.71l5.22 0.48a18.47 18.47 0 0 0-10.44 6.37c-1.6 2-2.82 4.56-2.12 7s4.08 4 5.92 2.26a27.94 27.94 0 0 0-6.1 22.79 14.47 14.47 0 0 1 0.46 5.26c-0.33 1.65-1.37 3.08-1.89 4.69-1 2.92-0.05 6.09 0.84 9l4.69 15.42c1.7 5.57 3.39 11.15 5.61 16.54a82.08 82.08 0 0 1 4 10.51c1.26 4.84 1.31 10.14 4 14.37a19.93 19.93 0 0 0 7.18 6.33c9.89 5.66 21.84 6.86 33.16 5.5s22.18-5.11 32.95-8.83a31 31 0 0 0 6.84-3c7.45-4.88 9.11-14.86 10.5-23.65 1.55-9.8 3.62-19.58 7.29-28.8 2.18-5.49 5-11.06 4.52-16.94-0.61-7.81-6.79-14.14-8.32-21.82a19 19 0 0 1 0.07-7.77 17.66 17.66 0 0 0 0.79-4.7c-0.17-3.22-2.81-5.7-5.29-7.77q-8.07-6.74-16.66-12.74c-0.29-2 2.43-2.86 3.66-4.44 1.74-2.23-0.06-5.77-2.7-6.81s-5.6-0.36-8.35 0.33a6.59 6.59 0 0 0-11.55-5.11 10.2 10.2 0 0 0-8.42-6.08c-6.63-0.52-6.76 4.55-11 7.34s-7.74-0.89-11-3.57a9.28 9.28 0 0 0 1.36 9.18z" fill="#3f3d56"/>
   <path d="m787.14 527.76s-0.89 2.12-2.53 5.19a69 69 0 0 1-9 13.17l-0.27 0.29h-1.62l-57.74 0.53h-1.38l-0.17-0.2-11.2-13.29-4.22-5.01-0.17-0.21-0.36-0.42-0.2-0.24-0.26-0.31-8.21-9.74 3-12.5 5.11-21.06 0.13-0.51 1-4 0.71-3 2.38-9.78 8.16-33.65 14.5 7.5 15.29 27 8.21 14.5h4.5c0.85 0 2.8 1.64 4.76 3.53 0.7 0.67 1.4 1.38 2 2 1.78 1.84 3.19 3.42 3.19 3.42s7.29 0.16 9.25 5.9a7 7 0 0 1 0.25 0.85 40.3 40.3 0 0 0 2.53 6.56c1.29 2.81 2.91 6 4.55 9.19 3.05 5.85 6.15 11.42 7.29 13.44l0.14 0.25z" fill="#6c63ff"/>
   <path d="m719.95 482.41-0.11453 1.43v0.1l-0.1947 2.3-1.5233 18.51-1.844 22.3-0.52684 6.28-1.1453 13.44v0.17l-122.55 1-201.11 1.9v0.84h-0.16035v-1.12l0.51539-14.36 0.98497-28.06 0.84753-23.79 0.0802-2.37a12.06 10.53 0 0 1 13.079-10.17c5.4059 0.4 12.427 0.89 20.822 1.41l3.4359 0.22c48.481 2.94 138.08 6.74 228.49 2 1.9012-0.09 3.8139-0.19 5.7266-0.31 14.019-0.77 28.026-1.76 41.895-3a12.06 10.53 0 0 1 13.286 11.23z" opacity=".1"/>
   <path d="m390.57 550.86v-0.84l201.14-1.91 122.55-1h0.34359v-0.17l1.1453-13.44 0.49248-6 1.8783-22.61 1.4774-17.9v-0.44a12.163 10.62 0 0 0-0.12599-2.47 0.34359 0.3 0 0 0 0-0.1 11.9 10.39 0 0 0-2.2906-4.64 12.072 10.54 0 0 0-10.789-4c-13.87 1.24-27.877 2.23-41.895 3-1.9127 0.12-3.8253 0.22-5.7266 0.31-90.411 4.69-180.01 0.89-228.49-2l-3.4359-0.22c-8.3951-0.52-15.416-1-20.822-1.41a12.072 10.54 0 0 0-12.873 8.53 12.598 11 0 0 0-0.20615 1.64l-0.77881 22.16-1.0651 28.07-0.50394 14.36v1.12z" fill="#3f3d56"/>
   <g transform="translate(65.84,-5.8)" opacity=".1">
    <path transform="translate(-79.34,-172.91)" d="m552.93 361.56a9.75 9.75 0 0 1-1.89-4.34 9.49 9.49 0 0 0 0.42 4.6 9 9 0 0 0 1.47-0.26z"/>
    <path transform="translate(-79.34,-172.91)" d="m540.23 368.2a35.12 35.12 0 0 1-0.37-3.7v3.71z"/>
    <path transform="translate(-79.34,-172.91)" d="m621.73 401.57a18.34 18.34 0 0 1 0.36-2.65 18 18 0 0 0 0.8-4.69 6.16 6.16 0 0 0-0.16-1.06c-0.17 0.92-0.44 1.84-0.64 2.75a19.14 19.14 0 0 0-0.36 5.65z"/>
    <path transform="translate(-79.34,-172.91)" d="m600.93 370.67 1.09 0.79a19.71 19.71 0 0 0 2.57-2.22 3.67 3.67 0 0 0 0.38-3.64 3 3 0 0 1-0.38 0.64c-1.23 1.58-3.95 2.45-3.66 4.43z"/>
    <path transform="translate(-79.34,-172.91)" d="m518.76 380.29a12.32 12.32 0 0 0-0.87 2.28 18.16 18.16 0 0 1 5-1.89z"/>
    <path transform="translate(-79.34,-172.91)" d="m532.55 369.41a14.83 14.83 0 0 1-1.88-1.23 4.25 4.25 0 0 0 0.09 1.18 11.86 11.86 0 0 1 1.79 0.05z"/>
    <path transform="translate(-79.34,-172.91)" d="m630.32 428.33c-0.41 4.85-2.67 9.52-4.5 14.12-3.67 9.22-5.74 19-7.29 28.81-1.39 8.79-3 18.77-10.5 23.64a30 30 0 0 1-6.83 3c-10.78 3.73-21.65 7.47-33 8.83s-23.26 0.17-33.16-5.49a20 20 0 0 1-7.18-6.33c-2.67-4.23-2.72-9.53-4-14.37a82.21 82.21 0 0 0-4-10.52c-2.21-5.38-3.91-11-5.6-16.53q-2.35-7.71-4.69-15.43a28.81 28.81 0 0 1-1.14-4.75c-0.39 2.56 0.37 5.24 1.14 7.75q2.34 7.73 4.69 15.43c1.69 5.57 3.39 11.15 5.6 16.53a82.21 82.21 0 0 1 4 10.52c1.26 4.84 1.31 10.14 4 14.37a20 20 0 0 0 7.18 6.33c9.9 5.66 21.84 6.85 33.16 5.49s22.18-5.1 33-8.83a30 30 0 0 0 6.83-3c7.45-4.87 9.11-14.85 10.5-23.64 1.55-9.81 3.62-19.59 7.29-28.81 2.18-5.48 5-11.05 4.52-16.94 0-0.06-0.02-0.12-0.02-0.18z"/>
    <path transform="translate(-79.34,-172.91)" d="m510.63 424.46v-0.11a14 14 0 0 0-0.46-5.25 26.59 26.59 0 0 1-0.39-3.32 27.35 27.35 0 0 0 0.39 6.32c0.16 0.78 0.34 1.57 0.46 2.36z"/>
    <path transform="translate(-79.34,-172.91)" d="m513.68 400a27.74 27.74 0 0 1 2.61-3.67c-1.83 1.75-5.21 0.19-5.92-2.24a5.83 5.83 0 0 0 0 3 4.39 4.39 0 0 0 3.31 2.91z"/>
   </g>
   <path d="m768.09 483.66s3.6306 11.5 0 21.5c-3.6306 10 0-21.5 0-21.5z" opacity=".1"/>
   <g transform="translate(2633.5 -389.17)">
    <g fill="#6c63ff">
     <path d="m-2518.5 760.66v21.177h126.67v-21.177zm12.614 19.841h-10.387v-18.505h10.387zm12.614 0h-10.387v-18.505h10.387zm12.585 0h-10.387v-18.505h10.387zm12.614 0h-10.387v-18.505h10.387zm12.6 0h-10.387v-18.505h10.387zm12.614 0h-10.387v-18.505h10.387zm12.614 0h-10.387v-18.505h10.387zm12.6 0h-10.387v-18.505h10.387zm12.6 0h-10.387v-18.505h10.387zm12.6 0h-10.416v-18.505h10.387z" opacity=".1"/>
     <path d="m-2518.5 822.31v21.163h126.67v-21.163zm12.614 19.826h-10.387v-18.505h10.387zm12.614 0h-10.387v-18.505h10.387zm12.585 0h-10.387v-18.505h10.387zm12.614 0h-10.387v-18.505h10.387zm12.6 0h-10.387v-18.505h10.387zm12.614 0h-10.387v-18.505h10.387zm12.614 0h-10.387v-18.505h10.387zm12.6 0h-10.387v-18.505h10.387zm12.6 0h-10.387v-18.505h10.387zm12.6 0h-10.416v-18.505h10.387z" opacity=".1"/>
     <path d="m-1796.3 850.58s-4.59 21.37 15.84 23.91l1.26-2.38s-15.86-14.88-17.1-21.53z"/>
     <path d="m-1772.7 871.95-4.7501 1-0.48 0.1s-12.67-10.29-12.51-33.25a57.13 57.13 0 0 0 6 9.57c5.08 6.66 10.79 15.53 11.74 22.58z"/>
     <path d="m-1771.1 874.15a3 3 0 0 1-2.55 0.34c-12.2-2.85-8.0801-42.6-8.0801-42.6 0.68 0.32 1.42 5.37 4.22 11.9 4.8801 11.47 10.29 27.49 6.4101 30.36z"/>
     <path d="m-1744.1 850.58s0.79 21.37-19.64 23.91l-1.27-2.38s19.66-14.88 20.91-21.53z"/>
     <path d="m-1749.9 839.81c0.15 23-16.31 33.25-16.31 33.25l-0.48-0.1-4.75-1c0.94-7.05 6.66-15.92 11.68-22.57a51.62 51.62 0 0 1 9.86-9.58z"/>
     <path d="m-1766.8 872.07a7.46 7.46 0 0 1-2.72 2.08 5.13 5.13 0 0 1-1 0.34c-3 0.7-4.0501-1.47-3.8701-5.14 0.28-6.55 4.3901-17.9 8.0901-26.4 2.66-6.12 7-10.75 7.66-11.06-0.01 0-0.19 30.95-8.16 40.18z"/>
     <path d="m-1770.2 817.95s-13.62 48.3-1.9 55.59c11.72 7.29 4.91-51.31 1.9-55.59z"/>
    </g>
    <path d="m-1796.3 850.58s-4.59 21.37 15.84 23.91l1.26-2.38s-15.86-14.88-17.1-21.53z" opacity=".1"/>
    <path d="m-1772.7 871.95-4.7501 1-0.48 0.1s-12.67-10.29-12.51-33.25a57.13 57.13 0 0 0 6 9.57c5.08 6.66 10.79 15.53 11.74 22.58z" opacity=".1"/>
    <path d="m-1771.1 874.15a3 3 0 0 1-2.55 0.34c-12.2-2.85-8.0801-42.6-8.0801-42.6 0.68 0.32 1.42 5.37 4.22 11.9 4.8801 11.47 10.29 27.49 6.4101 30.36z" opacity=".1"/>
    <path d="m-1744.1 850.58s0.79 21.37-19.64 23.91l-1.27-2.38s19.66-14.88 20.91-21.53z" opacity=".1"/>
    <path d="m-1749.9 839.81c0.15 23-16.31 33.25-16.31 33.25l-0.48-0.1-4.75-1c0.94-7.05 6.66-15.92 11.68-22.57a51.62 51.62 0 0 1 9.86-9.58z" opacity=".1"/>
    <path d="m-1766.8 872.07a7.46 7.46 0 0 1-2.72 2.08 5.13 5.13 0 0 1-1 0.34c-3 0.7-4.0501-1.47-3.8701-5.14 0.28-6.55 4.3901-17.9 8.0901-26.4 2.66-6.12 7-10.75 7.66-11.06-0.01 0-0.19 30.95-8.16 40.18z" opacity=".1"/>
    <path d="m-1770.2 817.95s-13.62 48.3-1.9 55.59c11.72 7.29 4.91-51.31 1.9-55.59z" opacity=".1"/>
    <path d="m-1796.3 850.58s-2.69 21.37 17.74 23.91l1.26-2.38s-17.76-14.88-19-21.53z" fill="#6c63ff"/>
    <path d="m-1770.8 871.95-4.7501 1-0.48 0.1s-14.57-10.29-14.41-33.25c0 0 3.73 4 8 9.57 4.98 6.66 10.69 15.53 11.64 22.58z" fill="#6c63ff"/>
    <path d="m-1770.8 871.95-4.7501 1c-4.51-4-6.29-14.27-6.94-23.58 5.03 6.66 10.74 15.53 11.69 22.58z" opacity=".1"/>
    <g fill="#6c63ff">
     <path d="m-1769.2 874.15a3 3 0 0 1-2.55 0.34c-12.2-2.85-10-42.6-10-42.6 0.68 0.32 3.32 5.37 6.12 11.9 4.9401 11.47 10.35 27.49 6.4301 30.36z"/>
     <path d="m-1744.1 850.58s2.69 21.37-17.74 23.91l-1.26-2.38s17.75-14.88 19-21.53z"/>
     <path d="m-1749.9 839.81c0.15 23-14.41 33.25-14.41 33.25l-0.48-0.1-4.75-1c0.94-7.05 6.66-15.92 11.68-22.57 4.23-5.58 7.96-9.58 7.96-9.58z"/>
    </g>
    <path d="m-1757.9 849.41c-0.61 8.68-2.2 18.23-6.05 22.69a7.41 7.41 0 0 1-0.88 0.89l-4.75-1c0.94-7.09 6.66-15.96 11.68-22.58z" opacity=".1"/>
    <path d="m-1764.9 872.07a7.46 7.46 0 0 1-2.72 2.08 5.13 5.13 0 0 1-1 0.34c-3 0.7-4.05-1.47-3.87-5.14 0.28-6.55 4.39-17.9 8.09-26.4 2.66-6.12 5.11-10.75 5.76-11.06-0.01 0 1.71 30.95-6.26 40.18z" fill="#6c63ff"/>
    <path d="m-1769.2 874.15a3.38 3.38 0 0 1-1.92-0.61c-5.7401-3.58-5.8601-17-4.4901-29.75 4.9201 11.47 10.33 27.49 6.4101 30.36z" opacity=".1"/>
    <path d="m-1764.9 872.07c-0.66 1.43-1.55 2.19-2.72 2.08a3.71 3.71 0 0 1-1.63-0.61 8.66 8.66 0 0 1-3.24-4.19c0.28-6.55 4.39-17.9 8.09-26.4 1.3 11.79 1.75 24.29-0.5 29.12z" opacity=".1"/>
    <path d="m-1770.2 817.95s-11.72 48.3 0 55.59c11.72 7.29 3.01-51.31 0-55.59z" fill="#6c63ff"/>
    <polygon transform="translate(-2331.4 511.14)" points="542.38 368.1 542.56 369.05 545.54 384.73 573.89 384.73 576.88 369.05 577.06 368.1 583.71 368.1 583.71 360.02 534.93 360.02 534.93 368.1" fill="#4b4770"/>
    <polygon transform="translate(-2331.4 511.14)" points="542.38 368.1 542.56 369.05 545.54 384.73 573.89 384.73 576.88 369.05 577.06 368.1 583.71 368.1 583.71 360.02 534.93 360.02 534.93 368.1" opacity=".1"/>
    <polygon transform="translate(-2331.4 511.14)" points="543.64 364.77 579.59 364.77 578.78 369.05 575.79 384.73 547.44 384.73 544.46 369.05" fill="#4b4770"/>
    <polygon transform="translate(-2331.4 511.14)" points="543.64 364.77 579.59 364.77 578.78 369.05 544.46 369.05" opacity=".1"/>
    <rect x="-1794.6" y="871.16" width="48.77" height="8.08" fill="#4b4770"/>
    <path d="m-1711.2 900.24c0 4.34-9.33 9.45-20.85 9.45s-20.84-5.11-20.84-9.45 9.33-6.29 20.84-6.29 20.85 1.94 20.85 6.29z" fill="#e8eaf2"/>
    <path d="m-1711.2 900.24c0 4.34-9.33 9.45-20.85 9.45s-20.84-5.11-20.84-9.45 9.33-6.29 20.84-6.29 20.85 1.94 20.85 6.29z" opacity=".1"/>
    <ellipse cx="-1732" cy="900.24" rx="20.85" ry="7.87" fill="#e8eaf2"/>
    <ellipse cx="-1732" cy="900.24" rx="11.79" ry="4.45" opacity=".1"/>
    <path d="m-1715 890.79c-2 5.16-5.11 6.67-7.54 7a8.14 8.14 0 0 1-3.63-0.37l1.44-3.08a4.88 4.88 0 0 0 2.78 0c1.27-0.4 2.68-1.45 3.65-4 1.53-3.92-0.38-4.49-1.71-4.47a5.25 5.25 0 0 0-0.81 0.08l1.14-2.43a7.74 7.74 0 0 1 1.14-0.2c2.16-0.21 6.37 0.2 3.54 7.47z" fill="#ffd7e3"/>
    <path d="m-1724.2 901.56c-8.12 4.23-16.09 0-16.09 0l0.12-1.17 0.08-0.88 15.69-0.3 0.12 1.4z" fill="#f1cec8"/>
    <path d="m-1721.9 894.3a24.29 24.29 0 0 1-0.59 3.47 8.14 8.14 0 0 1-3.63-0.37l1.44-3.08a4.88 4.88 0 0 0 2.78-0.02z" opacity=".1"/>
    <path d="m-1718.5 883.32a3.39 3.39 0 0 1-0.44 0.87l-0.12 0.17c-0.33 0.49-0.63 1-0.91 1.51a5.25 5.25 0 0 0-0.81 0.08l1.14-2.43a7.74 7.74 0 0 1 1.14-0.2z" opacity=".1"/>
    <path d="m-1724.2 900.61c-2.78 1.49-13.21 1.92-15.89-0.22l0.08-0.88 15.69-0.3z" opacity=".1"/>
    <path d="m-1719.2 884.19-0.12 0.17a15.5 15.5 0 0 0-2.64 7.64c-0.49 6.75-1.49 7.42-1.6 7.71-0.81 2.05-14.81 2.85-16.91 0-1.74-2.36-3.43-7.47-2.65-10.34 0.42-1.55-0.46-3.25-1.36-4.5a3.47 3.47 0 0 1 0.93-4.95c4-2.55 11-2.69 11-2.69 6-0.46 9.84 0.7 12.18 2l0.3 0.18a3.45 3.45 0 0 1 0.86 4.81z" fill="#ffd7e3"/>
    <ellipse cx="-1732.2" cy="883.54" rx="10.63" ry="2.51" opacity=".1"/>
    <ellipse cx="-1732.2" cy="883.84" rx="10.63" ry="2.51" fill="#42312e"/>
    <path d="m-1730 882.26s-7.64 0.25-7.42 3a19.26 19.26 0 0 1 7.42-3z" fill="#fff" opacity=".2"/>
    <path d="m-1727.9 882.96s-4.55 0-3.83 2.27c0 0 1.06-0.17 0.91-0.75s2.92-1.2 2.92-1.2z" fill="#fff" opacity=".2"/>
    <path d="m-1744.1 882.26s-0.3 4.68 11.62 4.42 11.86-3.36 12-4.42h-0.65s-0.15 3.82-11.14 3.72-11.29-3.72-11.29-3.72z" fill="#f6e2df"/>
    <path d="m-1718.7 881.5-7.19 3.84a0.68 0.68 0 0 1-0.85-0.18l-0.12-0.15a0.89 0.89 0 0 1 0.21-1.3l6.58-4.17a3.39 3.39 0 0 1 1.37 1.96z" opacity=".1"/>
    <path d="m-1726.7 883.48 18.67-11.83a2.8 2.8 0 0 1 1.4-0.45c0.94 0 2.27 0.15 1.85 1.66a2.82 2.82 0 0 1-1.41 1.71l-19.72 10.54a0.68 0.68 0 0 1-0.85-0.17l-0.12-0.15a0.9 0.9 0 0 1 0.18-1.31z" fill="#e8eaf2"/>
    <path d="m-1726.7 883.48 18.67-11.83a2.8 2.8 0 0 1 1.4-0.45c0.94 0 2.27 0.15 1.85 1.66a2.82 2.82 0 0 1-1.41 1.71l-19.72 10.54a0.68 0.68 0 0 1-0.85-0.17l-0.12-0.15a0.9 0.9 0 0 1 0.18-1.31z" opacity=".1"/>
    <path d="m-1726.7 883.33 18.67-11.83a2.8 2.8 0 0 1 1.4-0.45c0.94 0 2.27 0.15 1.85 1.66a2.82 2.82 0 0 1-1.41 1.71l-19.72 10.54a0.69 0.69 0 0 1-0.85-0.17l-0.12-0.15a0.9 0.9 0 0 1 0.18-1.31z" fill="#e8eaf2"/>
    <path d="m-1727.7 883.67s2-0.43 1.73 0.1 0.86 1.19 0.86 1.19-2.06 0.49-2.37 0.19-0.22-1.48-0.22-1.48z" opacity=".1"/>
    <path d="m-1727.9 883.79s2-0.42 1.73 0.1 0.86 1.2 0.86 1.2-2.06 0.49-2.37 0.19-0.22-1.49-0.22-1.49z" fill="#42312e"/>
    <path d="m-1731 863.03a7.36 7.36 0 0 0-1.78 3.32 10.9 10.9 0 0 0 0.11 3.46 19.36 19.36 0 0 0 0.4 2.32c0.11 0.44 0.4 0.92 0.61 0.62 0-1.08-0.23-2.14-0.18-3.22a7.38 7.38 0 0 1 1-3.18 16.06 16.06 0 0 0 1.36-2.79c0.15-0.47 0.73-4.71-0.07-4-0.16 0.15-0.35 1.54-0.5 1.89a7 7 0 0 1-0.95 1.58z" fill="#f2dcdc"/>
    <path d="m-1730.7 870.01c0.06 0.4 0.39 0.69 0.54 1.06a2.54 2.54 0 0 1 0.13 0.73 5.34 5.34 0 0 1-0.53 3.52 2.45 2.45 0 0 0 1.34-1.81 6.19 6.19 0 0 0 0.18-1.22 11.42 11.42 0 0 0 0-1.17c0-0.59 0.18-2.12-0.55-2.41s-1.11 0.74-1.11 1.3z" fill="#f2dcdc"/>
    <path d="m-1743 888.53a4.48 4.48 0 0 0 3.43 1.54s-2.42 0.36-3.61-0.42z" opacity=".1"/>
    <polygon transform="matrix(1.4367 0 0 1.4367 -2610.2 310.69)" points="166.19 367.83 80.72 386.74 83.37 391.53 169.6 373.25" fill="#464a5f" stroke-width=".69604"/>
    <g>
     <path d="m-2509.1 873.01-18.749-111.29a3.5486 3.5486 0 0 1 3.1176-4.1233l142.23-15.172a3.5486 3.5486 0 0 1 3.8934 3.0602l13.304 97.466z" fill="#464a5f"/>
     <path d="m-2509.1 873.01-18.749-111.29a3.5486 3.5486 0 0 1 3.1176-4.1233l142.23-15.172a3.5486 3.5486 0 0 1 3.8934 3.0602l13.304 97.466z" opacity=".1"/>
     <path d="m-2506.9 873.01-18.763-111.29a3.563 3.563 0 0 1 3.132-4.1233l142.23-15.172a3.5486 3.5486 0 0 1 3.8934 3.0602l13.304 97.466z" fill="#464a5f"/>
    </g>
    <polygon transform="matrix(1.4367 0 0 1.4367 -2610.2 310.69)" points="157.62 306.31 65.72 317.4 76.44 383.21 165.94 364.8" fill="#6c63ff" stroke-width=".69604"/>
    <g>
     <path d="m-2491.2 871.03-0.9051-1.8102-17.025 3.7929 43.374 66.26a5.5888 5.5888 0 0 0 6.2497 2.3131l152.29-44.265a5.6031 5.6031 0 0 0 1.8246-9.8557l-59.02-44.696-12.312 2.8734 0.5316 1.2643z" fill="#9c9ca1"/>
     <path d="m-2491.2 871.03-0.9051-1.8102-17.025 3.7929 43.374 66.26a5.5888 5.5888 0 0 0 6.2497 2.3131l152.29-44.265a5.6031 5.6031 0 0 0 1.8246-9.8557l-59.02-44.696-12.312 2.8734 0.5316 1.2643z" opacity=".1"/>
     <path d="m-2421.1 898.16 48.934-12.715a0.97695 0.97695 0 0 1 0.8764 0.21551l21.737 19.726a0.94822 0.94822 0 0 1-0.3735 1.6091l-51.721 15.286a0.96259 0.96259 0 0 1-0.9913-0.30171l-18.936-22.283a0.96259 0.96259 0 0 1 0.4741-1.5373z" opacity=".1"/>
     <path d="m-2420 897.09 48.948-12.772a0.94822 0.94822 0 0 1 0.8764 0.21551l21.737 19.711a0.94822 0.94822 0 0 1-0.3735 1.6091l-51.721 15.286a0.96259 0.96259 0 0 1-0.9913-0.3017l-18.95-22.154a0.93385 0.93385 0 0 1 0.4741-1.5947z" fill="#939498"/>
    </g>
    <g transform="matrix(1.4367 0 0 1.4367 -2610.2 310.69)" opacity=".1" stroke-width=".69604">
     <path transform="translate(-75.67,-43.73)" d="m160.11 440.18 1.53 2.47a0.31 0.31 0 0 0 0.31 0.13l5.16-1.15a0.3 0.3 0 0 0 0.18-0.46l-1.71-2.38a0.3 0.3 0 0 0-0.3-0.12l-5 1.07a0.29 0.29 0 0 0-0.17 0.44z"/>
     <path transform="translate(-75.67,-43.73)" d="m166.85 438.76 1.53 2.47a0.3 0.3 0 0 0 0.32 0.13l5.16-1.15a0.3 0.3 0 0 0 0.17-0.46l-1.71-2.38a0.29 0.29 0 0 0-0.3-0.12l-5 1.07a0.3 0.3 0 0 0-0.17 0.44z"/>
     <path transform="translate(-75.67,-43.73)" d="m173.41 437.35 1.53 2.46a0.29 0.29 0 0 0 0.31 0.13l5.16-1.15a0.3 0.3 0 0 0 0.18-0.46l-1.71-2.33a0.32 0.32 0 0 0-0.3-0.12l-5 1.07a0.3 0.3 0 0 0-0.17 0.4z"/>
     <path transform="translate(-75.67,-43.73)" d="m179.85 436 1.51 2.43a0.31 0.31 0 0 0 0.33 0.14l5.12-1.14a0.32 0.32 0 0 0 0.19-0.49l-1.68-2.35a0.32 0.32 0 0 0-0.33-0.12l-4.94 1.06a0.32 0.32 0 0 0-0.2 0.47z"/>
     <path transform="translate(-75.67,-43.73)" d="m179.33 439.71 1.53 2.46a0.29 0.29 0 0 0 0.32 0.13l5.16-1.15a0.29 0.29 0 0 0 0.17-0.45l-1.71-2.39a0.28 0.28 0 0 0-0.3-0.11l-5 1.07a0.3 0.3 0 0 0-0.17 0.44z"/>
     <path transform="translate(-75.67,-43.73)" d="m172.65 441.13 1.53 2.46a0.28 0.28 0 0 0 0.31 0.13l5.17-1.15a0.3 0.3 0 0 0 0.17-0.46l-1.71-2.38a0.29 0.29 0 0 0-0.3-0.11l-5 1.07a0.29 0.29 0 0 0-0.17 0.44z"/>
     <path transform="translate(-75.67,-43.73)" d="m177 444.15 1.53 2.47a0.3 0.3 0 0 0 0.31 0.13l5.16-1.15a0.3 0.3 0 0 0 0.17-0.46l-1.71-2.38a0.29 0.29 0 0 0-0.3-0.12l-5 1.07a0.29 0.29 0 0 0-0.16 0.44z"/>
     <path transform="translate(-75.67,-43.73)" d="m183.15 446.8 1.53 2.46a0.3 0.3 0 0 0 0.31 0.14l5.16-1.15a0.3 0.3 0 0 0 0.18-0.46l-1.71-2.38a0.28 0.28 0 0 0-0.3-0.12l-5 1.07a0.29 0.29 0 0 0-0.17 0.44z"/>
     <path transform="translate(-75.67,-43.73)" d="m184.21 451.08 2.47 3.1a0.3 0.3 0 0 0 0.31 0.1l5.2-1.35a0.29 0.29 0 0 0 0.15-0.47l-2.55-3.12a0.29 0.29 0 0 0-0.3-0.1l-5.12 1.38a0.29 0.29 0 0 0-0.16 0.46z"/>
     <path transform="translate(-75.67,-43.73)" d="m191 449.38 2.53 3.19a0.31 0.31 0 0 0 0.31 0.1l6.79-1.88a0.29 0.29 0 0 0 0.14-0.47l-2.55-3.13a0.3 0.3 0 0 0-0.31-0.1l-6.76 1.82a0.3 0.3 0 0 0-0.15 0.47z"/>
     <path transform="translate(-75.67,-43.73)" d="m177.56 452.72 2.47 3.1a0.31 0.31 0 0 0 0.31 0.1l5.2-1.35a0.29 0.29 0 0 0 0.15-0.47l-2.55-3.1a0.28 0.28 0 0 0-0.3-0.09l-5.12 1.38a0.29 0.29 0 0 0-0.16 0.43z"/>
     <path transform="translate(-75.67,-43.73)" d="m170.54 454.55 2.47 3.09a0.29 0.29 0 0 0 0.3 0.1l5.2-1.35a0.3 0.3 0 0 0 0.16-0.47l-2.56-3.12a0.29 0.29 0 0 0-0.3-0.1l-5.12 1.38a0.29 0.29 0 0 0-0.15 0.47z"/>
     <path transform="translate(-75.67,-43.73)" d="m186.31 434.44 1.51 2.43a0.31 0.31 0 0 0 0.33 0.14l5.12-1.14a0.32 0.32 0 0 0 0.19-0.49l-1.68-2.38a0.31 0.31 0 0 0-0.32-0.12l-5 1.06a0.31 0.31 0 0 0-0.15 0.5z"/>
     <path transform="translate(-75.67,-43.73)" d="m185.9 438.22 1.51 2.43a0.31 0.31 0 0 0 0.33 0.14l5.12-1.14a0.32 0.32 0 0 0 0.19-0.49l-1.68-2.35a0.31 0.31 0 0 0-0.32-0.12l-5 1.06a0.31 0.31 0 0 0-0.15 0.47z"/>
     <path transform="translate(-75.67,-43.73)" d="m192.58 433 1.51 2.43a0.32 0.32 0 0 0 0.34 0.14l5.12-1.14a0.32 0.32 0 0 0 0.18-0.49l-1.68-2.35a0.31 0.31 0 0 0-0.32-0.12l-4.95 1.06a0.31 0.31 0 0 0-0.2 0.47z"/>
     <path transform="translate(-75.67,-43.73)" d="m210.92 429 2.13 2.26a0.26 0.26 0 0 0 0.24 0.07l4.57-1.06a0.25 0.25 0 0 0 0.12-0.43l-2.4-2.26a0.24 0.24 0 0 0-0.23-0.06l-4.3 1.06a0.26 0.26 0 0 0-0.13 0.42z"/>
     <path transform="translate(-75.67,-43.73)" d="m216.79 427.66 2.12 2.26a0.24 0.24 0 0 0 0.24 0.07l4.57-1.05a0.25 0.25 0 0 0 0.12-0.43l-2.4-2.27a0.27 0.27 0 0 0-0.23-0.06l-4.3 1.06a0.25 0.25 0 0 0-0.12 0.42z"/>
     <path transform="translate(-75.67,-43.73)" d="m211.05 432.67 2.13 2.26a0.24 0.24 0 0 0 0.24 0.08l4.58-1.01a0.25 0.25 0 0 0 0.11-0.43l-2.39-2.26a0.26 0.26 0 0 0-0.24-0.07l-4.3 1.07a0.25 0.25 0 0 0-0.13 0.36z"/>
     <path transform="translate(-75.67,-43.73)" d="m205 434.07 2 2.16a0.31 0.31 0 0 0 0.3 0.09l4.42-1a0.32 0.32 0 0 0 0.15-0.54l-2.29-2.16a0.31 0.31 0 0 0-0.29-0.07l-4.17 1a0.32 0.32 0 0 0-0.12 0.52z"/>
     <path transform="translate(-75.67,-43.73)" d="m209.61 440.88 2 2.16a0.33 0.33 0 0 0 0.3 0.09l4.42-1a0.31 0.31 0 0 0 0.15-0.53l-2.29-2.16a0.34 0.34 0 0 0-0.29-0.08l-4.17 1a0.32 0.32 0 0 0-0.12 0.52z"/>
     <path transform="translate(-75.67,-43.73)" d="m203.34 442.3 2 2.16a0.32 0.32 0 0 0 0.3 0.09l4.42-1a0.31 0.31 0 0 0 0.15-0.53l-2.21-2.19a0.32 0.32 0 0 0-0.29-0.08l-4.17 1a0.31 0.31 0 0 0-0.2 0.55z"/>
     <path transform="translate(-75.67,-43.73)" d="m197 443.87 2 2.16a0.31 0.31 0 0 0 0.3 0.09l4.43-1a0.32 0.32 0 0 0 0.14-0.54l-2.29-2.16a0.3 0.3 0 0 0-0.29-0.07l-4.17 1a0.31 0.31 0 0 0-0.12 0.52z"/>
     <path transform="translate(-75.67,-43.73)" d="m190.24 445.21 2.06 2.19a0.32 0.32 0 0 0 0.28 0.08l4.47-1a0.29 0.29 0 0 0 0.13-0.5l-2.32-2.19a0.29 0.29 0 0 0-0.27-0.07l-4.21 1a0.29 0.29 0 0 0-0.14 0.49z"/>
     <path transform="translate(-75.67,-43.73)" d="m203.27 438.36 2 2.16a0.31 0.31 0 0 0 0.29 0.09l4.43-1a0.31 0.31 0 0 0 0.14-0.53l-2.28-2.16a0.34 0.34 0 0 0-0.29-0.08l-4.17 1a0.32 0.32 0 0 0-0.12 0.52z"/>
     <path transform="translate(-75.67,-43.73)" d="m197.16 439.78 2 2.15a0.31 0.31 0 0 0 0.3 0.1l4.42-1a0.31 0.31 0 0 0 0.15-0.53l-2.29-2.16a0.29 0.29 0 0 0-0.29-0.08l-4.17 1a0.32 0.32 0 0 0-0.12 0.52z"/>
     <path transform="translate(-75.67,-43.73)" d="m190.61 441.16 2 2.16a0.29 0.29 0 0 0 0.29 0.09l4.43-1a0.32 0.32 0 0 0 0.14-0.54l-2.28-2.16a0.31 0.31 0 0 0-0.29-0.07l-4.17 1a0.3 0.3 0 0 0-0.12 0.52z"/>
     <path transform="translate(-75.67,-43.73)" d="m183.9 442.72 2.06 2.19a0.32 0.32 0 0 0 0.28 0.08l4.47-1a0.29 0.29 0 0 0 0.14-0.5l-2.32-2.19a0.32 0.32 0 0 0-0.28-0.07l-4.21 1a0.3 0.3 0 0 0-0.14 0.49z"/>
     <path transform="translate(-75.67,-43.73)" d="m209.58 436.88 2 2.16a0.32 0.32 0 0 0 0.3 0.09l4.42-1a0.31 0.31 0 0 0 0.15-0.53l-2.29-2.16a0.32 0.32 0 0 0-0.29-0.08l-4.17 1a0.31 0.31 0 0 0-0.12 0.52z"/>
     <path transform="translate(-75.67,-43.73)" d="m198.89 435.65 2 2.16a0.33 0.33 0 0 0 0.3 0.09l4.43-1a0.31 0.31 0 0 0 0.14-0.53l-2.29-2.16a0.3 0.3 0 0 0-0.29-0.08l-4.16 1a0.31 0.31 0 0 0-0.13 0.52z"/>
     <path transform="translate(-75.67,-43.73)" d="m222.45 426.23 2.22 2.36a0.21 0.21 0 0 0 0.18 0.06l4.73-1.1a0.19 0.19 0 0 0 0.08-0.32l-2.51-2.36a0.16 0.16 0 0 0-0.17-0.05l-4.44 1.1a0.18 0.18 0 0 0-0.09 0.31z"/>
     <path transform="translate(-75.67,-43.73)" d="m228.15 425 2.23 2.36a0.19 0.19 0 0 0 0.18 0.06l4.72-1.1a0.19 0.19 0 0 0 0.09-0.32l-2.51-2.37a0.18 0.18 0 0 0-0.17 0l-4.45 1.1a0.18 0.18 0 0 0-0.09 0.27z"/>
     <path transform="translate(-75.67,-43.73)" d="m234 423.62 2 2.19a0.17 0.17 0 0 0 0.18 0.06l4.41-1.2a0.2 0.2 0 0 0 0.07-0.33l-2.28-1.91a0.18 0.18 0 0 0-0.16 0l-4.16 0.92a0.19 0.19 0 0 0-0.06 0.27z"/>
     <path transform="translate(-75.67,-43.73)" d="m240.16 425.66 2 2.2a0.2 0.2 0 0 0 0.19 0.06l4.4-1.2a0.19 0.19 0 0 0 0.07-0.33l-2.27-1.91a0.16 0.16 0 0 0-0.16 0l-4.16 0.92a0.18 0.18 0 0 0-0.07 0.26z"/>
     <path transform="translate(-75.67,-43.73)" d="m239.42 429.66 1.93 2.08a0.23 0.23 0 0 0 0.25 0.07l4.24-1.15a0.26 0.26 0 0 0 0.1-0.44l-2.16-1.81a0.21 0.21 0 0 0-0.21-0.06l-4 0.89a0.25 0.25 0 0 0-0.15 0.42z"/>
     <path transform="translate(-75.67,-43.73)" d="m234.41 434.73 1.93 2.09a0.25 0.25 0 0 0 0.25 0.07l4.24-1.16a0.25 0.25 0 0 0 0.1-0.43l-2.16-1.82a0.23 0.23 0 0 0-0.21-0.05l-4 0.88a0.25 0.25 0 0 0-0.15 0.42z"/>
     <path transform="translate(-75.67,-43.73)" d="m228.39 436.31 1.93 2.08a0.23 0.23 0 0 0 0.25 0.07l4.24-1.15a0.26 0.26 0 0 0 0.1-0.44l-2.16-1.81a0.21 0.21 0 0 0-0.21-0.06l-4 0.89a0.25 0.25 0 0 0-0.15 0.42z"/>
     <path transform="translate(-75.67,-43.73)" d="m240.08 433.25 1.93 2.09a0.28 0.28 0 0 0 0.25 0.07l4.24-1.16a0.25 0.25 0 0 0 0.1-0.44l-2.15-1.81a0.29 0.29 0 0 0-0.22-0.06l-4 0.89a0.26 0.26 0 0 0-0.15 0.42z"/>
     <path transform="translate(-75.67,-43.73)" d="m239.1 437.75 2.91 2.62a0.28 0.28 0 0 0 0.24 0.05l4.21-1.19a0.25 0.25 0 0 0 0.1-0.43l-3.14-2.75a0.25 0.25 0 0 0-0.25-0.05l-4 1.33a0.24 0.24 0 0 0-0.07 0.42z"/>
     <path transform="translate(-75.67,-43.73)" d="m228.91 428.5 2 2.2a0.19 0.19 0 0 0 0.19 0.05l4.4-1.2a0.18 0.18 0 0 0 0.07-0.32l-2.27-1.92a0.24 0.24 0 0 0-0.16 0l-4.16 0.92a0.18 0.18 0 0 0-0.07 0.27z"/>
     <path transform="translate(-75.67,-43.73)" d="m223.22 429.91 1.93 2.08a0.26 0.26 0 0 0 0.25 0.08l4.24-1.16a0.26 0.26 0 0 0 0.1-0.44l-2.15-1.81a0.29 0.29 0 0 0-0.22-0.06l-4 0.89a0.26 0.26 0 0 0-0.15 0.42z"/>
     <path transform="translate(-75.67,-43.73)" d="m222.05 433.94 1.95 2.06a0.24 0.24 0 0 0 0.25 0.07l4.25-1.16a0.25 0.25 0 0 0 0.09-0.43l-2.15-1.82a0.25 0.25 0 0 0-0.22-0.05l-4 0.88a0.26 0.26 0 0 0-0.17 0.45z"/>
     <path transform="translate(-75.67,-43.73)" d="m216.06 435.39 1.93 2.09a0.26 0.26 0 0 0 0.26 0.07l4.24-1.16a0.25 0.25 0 0 0 0.09-0.43l-2.15-1.82a0.25 0.25 0 0 0-0.22-0.05l-4 0.88a0.26 0.26 0 0 0-0.15 0.42z"/>
     <path transform="translate(-75.67,-43.73)" d="m217.14 431.26 1.93 2.09a0.23 0.23 0 0 0 0.25 0.07l4.24-1.16a0.25 0.25 0 0 0 0.1-0.43l-2.16-1.83a0.23 0.23 0 0 0-0.21-0.05l-4 0.89a0.24 0.24 0 0 0-0.15 0.42z"/>
     <path transform="translate(-75.67,-43.73)" d="m222.15 437.66 1.93 2.09a0.25 0.25 0 0 0 0.25 0.07l4.24-1.16a0.25 0.25 0 0 0 0.1-0.43l-2.16-1.82a0.23 0.23 0 0 0-0.21-0.05l-4 0.88a0.25 0.25 0 0 0-0.15 0.42z"/>
     <path transform="translate(-75.67,-43.73)" d="m216.26 439.25 1.84 2a0.29 0.29 0 0 0 0.31 0.09l4.09-1.11a0.32 0.32 0 0 0 0.12-0.55l-2-1.72a0.32 0.32 0 0 0-0.27-0.06l-3.88 0.85a0.32 0.32 0 0 0-0.21 0.5z"/>
     <path transform="translate(-75.67,-43.73)" d="m234.71 427.05 2 2.2a0.19 0.19 0 0 0 0.19 0.05l4.4-1.2a0.18 0.18 0 0 0 0.07-0.32l-2.27-1.92a0.24 0.24 0 0 0-0.16 0l-4.17 0.92a0.19 0.19 0 0 0-0.06 0.27z"/>
     <path transform="translate(-75.67,-43.73)" d="m233.9 431 1.93 2.09a0.26 0.26 0 0 0 0.25 0.07l4.25-1.16a0.25 0.25 0 0 0 0.09-0.43l-2.15-1.82a0.25 0.25 0 0 0-0.22-0.05l-4 0.88a0.26 0.26 0 0 0-0.15 0.42z"/>
     <path transform="translate(-75.67,-43.73)" d="m228.14 432.59 1.92 2.08a0.29 0.29 0 0 0 0.26 0.08l4.24-1.16a0.26 0.26 0 0 0 0.1-0.44l-2.16-1.81a0.29 0.29 0 0 0-0.22-0.06l-4 0.89a0.25 0.25 0 0 0-0.14 0.42z"/>
     <path transform="translate(-75.67,-43.73)" d="m204.94 430.31 2.12 2.26a0.27 0.27 0 0 0 0.24 0.07l4.57-1.06a0.25 0.25 0 0 0 0.12-0.43l-2.4-2.26a0.24 0.24 0 0 0-0.23-0.06l-4.3 1.06a0.25 0.25 0 0 0-0.12 0.42z"/>
     <path transform="translate(-75.67,-43.73)" d="m198.83 431.8 2 2.16a0.31 0.31 0 0 0 0.3 0.09l4.42-1a0.32 0.32 0 0 0 0.15-0.54l-2.29-2.16a0.31 0.31 0 0 0-0.29-0.07l-4.17 1a0.31 0.31 0 0 0-0.12 0.52z"/>
     <path transform="translate(-75.67,-43.73)" d="m192.3 436.87 1.51 2.42a0.3 0.3 0 0 0 0.33 0.14l5.12-1.14a0.31 0.31 0 0 0 0.19-0.49l-1.69-2.34a0.32 0.32 0 0 0-0.32-0.13l-4.94 1.06a0.32 0.32 0 0 0-0.2 0.48z"/>
     <path transform="translate(-75.67,-43.73)" d="m158.79 437.77 5.05-1.17a0.31 0.31 0 0 1 0.3 0.11l0.89 1.17a0.29 0.29 0 0 1-0.17 0.46l-5.23 1.22a0.29 0.29 0 0 1-0.32-0.14l-0.71-1.22a0.29 0.29 0 0 1 0.19-0.43z"/>
     <path transform="translate(-75.67,-43.73)" d="m165.74 436.26 5-1.17a0.28 0.28 0 0 1 0.3 0.11l0.89 1.16a0.3 0.3 0 0 1-0.17 0.47l-5.23 1.22a0.3 0.3 0 0 1-0.32-0.14l-0.71-1.22a0.29 0.29 0 0 1 0.24-0.43z"/>
     <path transform="translate(-75.67,-43.73)" d="m172.45 434.81 5.05-1.16a0.29 0.29 0 0 1 0.3 0.1l0.89 1.17a0.29 0.29 0 0 1-0.17 0.46l-5.23 1.22a0.28 0.28 0 0 1-0.32-0.13l-0.71-1.22a0.3 0.3 0 0 1 0.19-0.44z"/>
     <path transform="translate(-75.67,-43.73)" d="m179 433.33 5.06-1.17a0.28 0.28 0 0 1 0.3 0.11l0.88 1.16a0.3 0.3 0 0 1-0.16 0.47l-5.24 1.21a0.3 0.3 0 0 1-0.32-0.13l-0.71-1.22a0.3 0.3 0 0 1 0.19-0.43z"/>
     <path transform="translate(-75.67,-43.73)" d="m185.64 431.85 5-1.16a0.33 0.33 0 0 1 0.32 0.12l0.86 1.13a0.32 0.32 0 0 1-0.18 0.5l-5.19 1.21a0.31 0.31 0 0 1-0.34-0.15l-0.69-1.18a0.32 0.32 0 0 1 0.22-0.47z"/>
     <path transform="translate(-75.67,-43.73)" d="m192.09 430.51 5-1.16a0.31 0.31 0 0 1 0.32 0.11l0.86 1.14a0.31 0.31 0 0 1-0.18 0.49l-5.19 1.21a0.32 0.32 0 0 1-0.34-0.15l-0.69-1.18a0.32 0.32 0 0 1 0.22-0.46z"/>
     <path transform="translate(-75.67,-43.73)" d="m198.41 429.19 4.63-1.12a0.31 0.31 0 0 1 0.3 0.09l0.9 0.94a0.32 0.32 0 0 1-0.15 0.52l-4.58 1.15a0.3 0.3 0 0 1-0.3-0.08l-1-1a0.32 0.32 0 0 1 0.2-0.5z"/>
     <path transform="translate(-75.67,-43.73)" d="m204.54 427.78 4.77-1.16a0.26 0.26 0 0 1 0.25 0.07l1 1.05a0.24 0.24 0 0 1-0.12 0.41l-4.71 1.19a0.26 0.26 0 0 1-0.24-0.07l-1.06-1.07a0.25 0.25 0 0 1 0.11-0.42z"/>
     <path transform="translate(-75.67,-43.73)" d="m210.67 426.34 4.77-1.16a0.22 0.22 0 0 1 0.24 0.07l1 1a0.25 0.25 0 0 1-0.12 0.42l-4.71 1.19a0.26 0.26 0 0 1-0.24-0.07l-1-1.07a0.25 0.25 0 0 1 0.06-0.38z"/>
     <path transform="translate(-75.67,-43.73)" d="m216.79 425.08 4.77-1.16a0.27 0.27 0 0 1 0.24 0.07l1 1.05a0.26 0.26 0 0 1-0.13 0.42l-4.67 1.18a0.26 0.26 0 0 1-0.24-0.06l-1.05-1.07a0.26 0.26 0 0 1 0.08-0.43z"/>
     <path transform="translate(-75.67,-43.73)" d="m222.59 423.69 4.91-1.19a0.17 0.17 0 0 1 0.18 0.05l1.1 1.15a0.18 0.18 0 0 1-0.09 0.31l-4.85 1.22a0.17 0.17 0 0 1-0.18-0.05l-1.16-1.18a0.19 0.19 0 0 1 0.09-0.31z"/>
     <path transform="translate(-75.67,-43.73)" d="m228.45 422.44 4.92-1.2a0.18 0.18 0 0 1 0.17 0.06l1.1 1.15a0.18 0.18 0 0 1-0.09 0.31l-4.85 1.24a0.17 0.17 0 0 1-0.18-0.05l-1.16-1.18a0.19 0.19 0 0 1 0.09-0.33z"/>
     <path transform="translate(-75.67,-43.73)" d="m234.29 421.1 4.55-1a0.2 0.2 0 0 1 0.19 0.07l0.88 1.08a0.18 0.18 0 0 1-0.1 0.29l-4.27 1.13a0.17 0.17 0 0 1-0.18-0.05l-1.16-1.17a0.19 0.19 0 0 1 0.09-0.35z"/>
     <path transform="translate(-75.67,-43.73)" d="m239.87 419.82 4.55-1a0.18 0.18 0 0 1 0.19 0.06l0.87 1.08a0.19 0.19 0 0 1-0.09 0.3l-4.27 1.13a0.25 0.25 0 0 1-0.19-0.05l-1.15-1.18a0.19 0.19 0 0 1 0.09-0.34z"/>
     <path transform="translate(-75.67,-43.73)" d="m162.33 443.79 1.68 2.39a0.28 0.28 0 0 0 0.3 0.12l8.75-2.05a0.29 0.29 0 0 0 0.17-0.46l-1.86-2.45a0.29 0.29 0 0 0-0.3-0.1l-8.57 2.09a0.3 0.3 0 0 0-0.17 0.46z"/>
     <path transform="translate(-75.67,-43.73)" d="m165 447 1.67 2.66a0.3 0.3 0 0 0 0.32 0.13l10.57-2.51a0.29 0.29 0 0 0 0.16-0.47l-2.09-2.59a0.29 0.29 0 0 0-0.3-0.1l-10.15 2.44a0.29 0.29 0 0 0-0.18 0.44z"/>
     <path transform="translate(-75.67,-43.73)" d="m167.37 450.52 2 2.89a0.29 0.29 0 0 0 0.31 0.12l14-3.46a0.3 0.3 0 0 0 0.16-0.47l-2.25-2.89a0.31 0.31 0 0 0-0.3-0.11l-13.84 3.47a0.29 0.29 0 0 0-0.08 0.45z"/>
     <path transform="translate(-75.67,-43.73)" d="m199.42 447.36 2.56 3.09a0.3 0.3 0 0 0 0.31 0.1l30.81-7.69a0.31 0.31 0 0 0 0.14-0.52l-3.14-3.13a0.33 0.33 0 0 0-0.3-0.08l-30.22 7.73a0.31 0.31 0 0 0-0.16 0.5z"/>
     <path transform="translate(-75.67,-43.73)" d="m231.22 439.39 3 3a0.26 0.26 0 0 0 0.25 0.07l6.31-1.69a0.25 0.25 0 0 0 0.11-0.42l-3.13-3.07a0.26 0.26 0 0 0-0.24-0.06l-6.19 1.78a0.26 0.26 0 0 0-0.11 0.39z"/>
     <path transform="translate(-75.67,-43.73)" d="m246.46 437.49 1.38 1.45a0.17 0.17 0 0 0 0.18 0.05l4.67-1.26a0.18 0.18 0 0 0 0.08-0.31l-1.66-1.57a0.2 0.2 0 0 0-0.18 0l-4.39 1.37a0.19 0.19 0 0 0-0.08 0.27z"/>
     <path transform="translate(-75.67,-43.73)" d="m250.44 434.37 1.64 1.72a0.19 0.19 0 0 0 0.2 0.05l4.29-1.49a0.18 0.18 0 0 0 0.07-0.31l-1.64-1.45a0.17 0.17 0 0 0-0.17 0l-4.33 1.21a0.19 0.19 0 0 0-0.06 0.27z"/>
     <path transform="translate(-75.67,-43.73)" d="m253.61 437.35-1.18-1a0.19 0.19 0 0 1 0-0.32l4.28-1.48a0.17 0.17 0 0 1 0.19 0l1.34 1.29a0.19 0.19 0 0 1-0.09 0.32l-4.43 1.15a0.18 0.18 0 0 1-0.11 0.04z"/>
     <path transform="translate(-75.67,-43.73)" d="m258 434.71c0.37 0.35 1 1.06 1.26 1.3a0.22 0.22 0 0 0 0.19 0.05l4.45-1.21a0.19 0.19 0 0 0 0.08-0.32l-1.58-1.42a0.19 0.19 0 0 0-0.19 0l-4.13 1.33a0.18 0.18 0 0 0-0.08 0.27z"/>
     <path transform="translate(-75.67,-43.73)" d="m245.5 431.89 2.38 2.3a0.18 0.18 0 0 0 0.18 0.05l11.48-3a0.19 0.19 0 0 0 0.08-0.32l-2.79-2.31a0.17 0.17 0 0 0-0.17 0l-11.08 3a0.18 0.18 0 0 0-0.08 0.28z"/>
     <path transform="translate(-75.67,-43.73)" d="m244.72 428.35 2.46 2.19a0.2 0.2 0 0 0 0.17 0l8.64-2a0.19 0.19 0 0 0 0.07-0.33l-2.83-2.37a0.16 0.16 0 0 0-0.16 0l-8.27 2.16a0.19 0.19 0 0 0-0.08 0.35z"/>
     <path transform="translate(-75.67,-43.73)" d="m245.51 424.58 2.33 2.08a0.18 0.18 0 0 0 0.17 0l4.43-1a0.19 0.19 0 0 0 0.08-0.33l-2.76-2.33a0.17 0.17 0 0 0-0.17 0l-4 1.28a0.19 0.19 0 0 0-0.08 0.3z"/>
     <path transform="translate(-75.67,-43.73)" d="m239.44 422.51 2.25 2.05a0.21 0.21 0 0 0 0.17 0l7-1.67a0.18 0.18 0 0 0 0.07-0.32l-2.68-2.25a0.22 0.22 0 0 0-0.17 0l-6.61 1.87a0.19 0.19 0 0 0-0.03 0.32z"/>
    </g>
    <g fill="#464a5f">
     <path d="m-2488.9 879.19 2.1982 3.5343a0.41664 0.41664 0 0 0 0.4453 0.18677l7.4134-1.6522a0.43101 0.43101 0 0 0 0.2586-0.66088l-2.4567-3.4624a0.45974 0.45974 0 0 0-0.4311-0.1724l-7.1834 1.5373a0.43101 0.43101 0 0 0-0.2443 0.68962z"/>
     <path d="m-2479.2 877.13 2.1981 3.5343a0.41664 0.41664 0 0 0 0.4598 0.18678l7.4133-1.6522a0.43101 0.43101 0 0 0 0.2011-0.63214l-2.4567-3.4193a0.41664 0.41664 0 0 0-0.431-0.15804l-7.1835 1.5373a0.43101 0.43101 0 0 0-0.2011 0.60341z"/>
     <path d="m-2469.8 875.11 2.1981 3.5343a0.40228 0.40228 0 0 0 0.4454 0.18677l7.4134-1.6522a0.41664 0.41664 0 0 0 0.2586-0.64651l-2.4568-3.4337a0.41664 0.41664 0 0 0-0.431-0.15803l-7.1835 1.5373a0.41664 0.41664 0 0 0-0.2442 0.63215z"/>
     <path d="m-2460.6 873.11 2.1694 3.4768a0.43101 0.43101 0 0 0 0.4741 0.20113l7.3559-1.6378a0.44538 0.44538 0 0 0 0.273-0.70398l-2.4136-3.3619a0.50284 0.50284 0 0 0-0.4742-0.18677l-7.0972 1.5229a0.45974 0.45974 0 0 0-0.2874 0.68962z"/>
     <path d="m-2461.3 878.57 2.1982 3.5486a0.45974 0.45974 0 0 0 0.4597 0.18677l7.4134-1.6522a0.43101 0.43101 0 0 0 0.2442-0.66088l-2.4567-3.4193a0.41664 0.41664 0 0 0-0.431-0.1724l-7.1835 1.5373a0.43101 0.43101 0 0 0-0.2443 0.63215z"/>
     <path d="m-2470.9 880.54 2.1981 3.5343a0.43101 0.43101 0 0 0 0.4454 0.20113l7.4277-1.6522a0.43101 0.43101 0 0 0 0.2443-0.66088l-2.4568-3.3906a0.41664 0.41664 0 0 0-0.431-0.17241l-7.1835 1.5373a0.41664 0.41664 0 0 0-0.2442 0.60341z"/>
     <path d="m-2464.7 884.89 2.1982 3.5343a0.40228 0.40228 0 0 0 0.4454 0.18677l7.4277-1.6522a0.43101 0.43101 0 0 0 0.2442-0.66088l-2.4567-3.4193a0.41664 0.41664 0 0 0-0.431-0.15804l-7.1835 1.5373a0.41664 0.41664 0 0 0-0.2443 0.63214z"/>
     <path d="m-2455.8 888.63 2.1982 3.5486a0.41664 0.41664 0 0 0 0.4453 0.18677l7.4134-1.6522a0.43101 0.43101 0 0 0 0.2586-0.66089l-2.4567-3.4193a0.43101 0.43101 0 0 0-0.4311-0.17241l-7.1834 1.5373a0.41664 0.41664 0 0 0-0.2443 0.63214z"/>
     <path d="m-2454.3 894.85 3.5487 4.4394a0.43101 0.43101 0 0 0 0.4453 0.14366l7.4709-1.9395a0.41664 0.41664 0 0 0 0.2155-0.67524l-3.6636-4.4825a0.41664 0.41664 0 0 0-0.431-0.14367l-7.3559 1.9826a0.43101 0.43101 0 0 0-0.2299 0.67525z"/>
     <path d="m-2444.5 892.39 3.6348 4.5831a0.44538 0.44538 0 0 0 0.4454 0.14367l9.7552-2.701a0.41664 0.41664 0 0 0 0.2011-0.67524l-3.6636-4.4825a0.43101 0.43101 0 0 0-0.4453-0.14367l-9.7121 2.6148a0.41664 0.41664 0 0 0-0.2155 0.66088z"/>
     <path d="m-2463.8 897.25 3.5486 4.4394a0.44538 0.44538 0 0 0 0.4454 0.14367l7.4708-1.9395a0.41664 0.41664 0 0 0 0.2155-0.67525l-3.6635-4.4825a0.41664 0.41664 0 0 0-0.4311-0.14367l-7.3558 1.9826a0.43101 0.43101 0 0 0-0.2299 0.67525z"/>
     <path d="m-2473.9 899.82 3.5486 4.4538a0.41664 0.41664 0 0 0 0.431 0.14367l7.4708-1.9395a0.43101 0.43101 0 0 0 0.2299-0.67525l-3.6779-4.4825a0.41664 0.41664 0 0 0-0.431-0.14367l-7.3559 1.9826a0.41664 0.41664 0 0 0-0.2155 0.66088z"/>
     <path d="m-2451.3 870.93 2.1694 3.4912a0.44538 0.44538 0 0 0 0.4741 0.20114l7.3559-1.6378a0.45974 0.45974 0 0 0 0.273-0.70398l-2.4137-3.3762a0.44538 0.44538 0 0 0-0.4597-0.17241l-7.1835 1.5229a0.45974 0.45974 0 0 0-0.2155 0.67525z"/>
     <path d="m-2451.9 876.36 2.1694 3.4912a0.44538 0.44538 0 0 0 0.4742 0.20113l7.3558-1.6378a0.44538 0.44538 0 0 0 0.273-0.70398l-2.4136-3.3619a0.45974 0.45974 0 0 0-0.4598-0.18677l-7.1835 1.5229a0.45974 0.45974 0 0 0-0.2155 0.67524z"/>
     <path d="m-2442.3 868.88 2.1694 3.4912a0.45974 0.45974 0 0 0 0.4885 0.20114l7.3558-1.6378a0.45974 0.45974 0 0 0 0.2587-0.70398l-2.4137-3.3619a0.45974 0.45974 0 0 0-0.4597-0.18678l-7.1117 1.5229a0.45974 0.45974 0 0 0-0.2873 0.67525z"/>
     <path d="m-2415.9 863.14 3.0602 3.2469a0.34481 0.34481 0 0 0 0.3448 0.10057l6.5657-1.5229a0.35917 0.35917 0 0 0 0.1724-0.60341l-3.4481-3.2613a0.34481 0.34481 0 0 0-0.3304-0.0862l-6.1778 1.5229a0.37354 0.37354 0 0 0-0.1868 0.60341z"/>
     <path d="m-2407.5 861.2 3.0458 3.2326a0.35917 0.35917 0 0 0 0.3448 0.11494l6.5657-1.5229a0.35917 0.35917 0 0 0 0.1724-0.61778l-3.4481-3.2469a0.34481 0.34481 0 0 0-0.3304-0.0862l-6.1778 1.5229a0.35917 0.35917 0 0 0-0.1724 0.60341z"/>
     <path d="m-2415.7 868.4 3.0601 3.2469a0.37354 0.37354 0 0 0 0.3448 0.10057l6.5657-1.5229a0.35917 0.35917 0 0 0 0.1581-0.61778l-3.4337-3.2469a0.37354 0.37354 0 0 0-0.3448-0.0862l-6.1778 1.5229a0.37354 0.37354 0 0 0-0.1724 0.60341z"/>
     <path d="m-2424.4 870.41 2.8734 3.0889a0.41664 0.41664 0 0 0 0.431 0.1293l6.3502-1.4367a0.44538 0.44538 0 0 0 0.2156-0.76145l-3.2901-3.1033a0.41664 0.41664 0 0 0-0.4166-0.11494l-5.9911 1.4367a0.45974 0.45974 0 0 0-0.1724 0.76145z"/>
     <path d="m-2417.8 880.18 2.8734 3.1033a0.44538 0.44538 0 0 0 0.431 0.12931l6.3502-1.4367a0.45974 0.45974 0 0 0 0.2155-0.77582l-3.29-3.1033a0.44538 0.44538 0 0 0-0.4167-0.10057l-5.991 1.4367a0.44538 0.44538 0 0 0-0.1724 0.74708z"/>
     <path d="m-2426.8 882.22 2.8734 3.1033a0.43101 0.43101 0 0 0 0.431 0.1293l6.3502-1.4367a0.45974 0.45974 0 0 0 0.2155-0.77582l-3.1751-3.132a0.44538 0.44538 0 0 0-0.4166-0.10057l-5.991 1.4367a0.44538 0.44538 0 0 0-0.2874 0.77582z"/>
     <path d="m-2435.9 884.49 2.8734 3.1033a0.47411 0.47411 0 0 0 0.431 0.12931l6.3645-1.4367a0.44538 0.44538 0 0 0 0.2012-0.76145l-3.2901-3.1033a0.44538 0.44538 0 0 0-0.4166-0.11493l-5.991 1.4367a0.45974 0.45974 0 0 0-0.1724 0.74708z"/>
     <path d="m-2445.6 886.4 2.9596 3.1464a0.41664 0.41664 0 0 0 0.4023 0.11494l6.422-1.4367a0.41664 0.41664 0 0 0 0.1868-0.71835l-3.3332-3.1895a0.43101 0.43101 0 0 0-0.3879-0.11493l-6.0485 1.4367a0.41664 0.41664 0 0 0-0.2011 0.76144z"/>
     <path d="m-2426.9 876.56 2.8734 3.1033a0.41664 0.41664 0 0 0 0.4166 0.1293l6.3646-1.4367a0.45974 0.45974 0 0 0 0.2011-0.77581l-3.2757-3.1033a0.44538 0.44538 0 0 0-0.4166-0.10057l-5.991 1.4367a0.45974 0.45974 0 0 0-0.1724 0.74708z"/>
     <path d="m-2435.7 878.57 2.8734 3.1033a0.47411 0.47411 0 0 0 0.431 0.1293l6.3502-1.4367a0.44538 0.44538 0 0 0 0.2155-0.76145l-3.29-3.1033a0.48848 0.48848 0 0 0-0.4166-0.11493l-5.9911 1.4367a0.45974 0.45974 0 0 0-0.1724 0.74709z"/>
     <path d="m-2445.1 880.59 2.8734 3.1033a0.44538 0.44538 0 0 0 0.4166 0.12931l6.3646-1.4367a0.44538 0.44538 0 0 0 0.2011-0.76145l-3.2757-3.1033a0.45974 0.45974 0 0 0-0.4166-0.11494l-5.991 1.4367a0.44538 0.44538 0 0 0-0.1724 0.74708z"/>
     <path d="m-2454.7 882.88 2.9596 3.1464a0.38791 0.38791 0 0 0 0.4023 0.11494l6.422-1.4367a0.41664 0.41664 0 0 0 0.2012-0.71835l-3.3332-3.1464a0.45974 0.45974 0 0 0-0.4022-0.11494l-6.0485 1.4367a0.43101 0.43101 0 0 0-0.2012 0.71835z"/>
     <path d="m-2417.8 874.43 2.8734 3.1033a0.45974 0.45974 0 0 0 0.431 0.1293l6.3502-1.4367a0.44538 0.44538 0 0 0 0.2155-0.76145l-3.29-3.1033a0.48848 0.48848 0 0 0-0.4167-0.11494l-5.991 1.4367a0.44538 0.44538 0 0 0-0.1724 0.74708z"/>
     <path d="m-2433.2 872.66 2.8734 3.1033a0.44538 0.44538 0 0 0 0.431 0.1293l6.3646-1.4367a0.45974 0.45974 0 0 0 0.2011-0.77581l-3.29-3.1033a0.43101 0.43101 0 0 0-0.4166-0.10057l-5.9767 1.4367a0.45974 0.45974 0 0 0-0.1868 0.74708z"/>
     <path d="m-2399.4 859.13 3.1895 3.405a0.25861 0.25861 0 0 0 0.2586 0.0718l6.7956-1.566a0.27297 0.27297 0 0 0 0.1149-0.45975l-3.6061-3.405a0.30171 0.30171 0 0 0-0.2443-0.0718l-6.3789 1.5804a0.27297 0.27297 0 0 0-0.1293 0.44538z"/>
     <path d="m-2391.2 857.32 3.2038 3.405a0.27297 0.27297 0 0 0 0.2586 0.0718l6.7812-1.566a0.27297 0.27297 0 0 0 0.1293-0.45974l-3.6061-3.405a0.25861 0.25861 0 0 0-0.2442-0.0718l-6.3933 1.5804a0.25861 0.25861 0 0 0-0.1293 0.44537z"/>
     <path d="m-2382.8 855.38 2.8733 3.1607a0.25861 0.25861 0 0 0 0.2587 0.0718l6.3358-1.724a0.27297 0.27297 0 0 0 0.1006-0.45974l-3.2757-2.7585a0.25861 0.25861 0 0 0-0.2299 0l-5.9766 1.3218a0.27297 0.27297 0 0 0-0.086 0.38791z"/>
     <path d="m-2373.9 858.33 2.8734 3.1607a0.27297 0.27297 0 0 0 0.273 0.0718l6.3214-1.724a0.25861 0.25861 0 0 0 0.1006-0.45974l-3.2613-2.7585a0.27297 0.27297 0 0 0-0.2299 0l-5.9766 1.3218a0.27297 0.27297 0 0 0-0.1006 0.38791z"/>
     <path d="m-2375 864.06 2.7729 3.0027a0.35917 0.35917 0 0 0 0.3591 0.10056l6.0916-1.6666a0.35917 0.35917 0 0 0 0.1437-0.61778l-3.1033-2.6148a0.33044 0.33044 0 0 0-0.3017 0l-5.7467 1.2643a0.37354 0.37354 0 0 0-0.2156 0.53158z"/>
     <path d="m-2382.2 871.38 2.7728 3.0027a0.33044 0.33044 0 0 0 0.3592 0.10057l6.0916-1.6522a0.37354 0.37354 0 0 0 0.1437-0.63215l-3.1033-2.6148a0.33044 0.33044 0 0 0-0.3017-0.0718l-5.7468 1.2787a0.34481 0.34481 0 0 0-0.2155 0.58904z"/>
     <path d="m-2390.8 873.61 2.7728 3.0027a0.40228 0.40228 0 0 0 0.3592 0.10057l6.0916-1.6666a0.37354 0.37354 0 0 0 0.1436-0.63215l-3.1032-2.6004a0.33044 0.33044 0 0 0-0.3017-0.0718l-5.7468 1.2643a0.37354 0.37354 0 0 0-0.2155 0.60341z"/>
     <path d="m-2374 869.22 2.7728 3.0027a0.33044 0.33044 0 0 0 0.3592 0.10057l6.0916-1.6666a0.35917 0.35917 0 0 0 0.1436-0.61778l-3.0889-2.6148a0.35917 0.35917 0 0 0-0.316-0.0718l-5.7468 1.2787a0.35917 0.35917 0 0 0-0.2155 0.58904z"/>
     <path d="m-2375.4 875.69 4.1808 3.7498a0.33044 0.33044 0 0 0 0.3448 0.0718l6.0485-1.7097a0.35917 0.35917 0 0 0 0.1437-0.61778l-4.5113-3.9509a0.35917 0.35917 0 0 0-0.3591-0.0718l-5.7468 1.9108a0.35917 0.35917 0 0 0-0.1006 0.61778z"/>
     <path d="m-2390.1 862.39 2.8734 3.1607a0.28734 0.28734 0 0 0 0.2729 0.0862l6.3215-1.724a0.27297 0.27297 0 0 0 0.1006-0.47411l-3.2613-2.7441a0.24424 0.24424 0 0 0-0.2299 0l-5.9767 1.3218a0.25861 0.25861 0 0 0-0.1005 0.37354z"/>
     <path d="m-2398.2 864.42 2.7728 3.0027a0.35917 0.35917 0 0 0 0.3592 0.10057l6.0916-1.6666a0.35917 0.35917 0 0 0 0.1436-0.61778l-3.0889-2.6148a0.35917 0.35917 0 0 0-0.316 0l-5.7468 1.2643a0.37354 0.37354 0 0 0-0.2155 0.53157z"/>
     <path d="m-2399.9 870.22 2.7728 2.9883a0.34481 0.34481 0 0 0 0.3592 0.10057l6.106-1.6522a0.37354 0.37354 0 0 0 0.1293-0.63215l-3.0889-2.6004a0.33044 0.33044 0 0 0-0.3161-0.0862l-5.7468 1.2787a0.35917 0.35917 0 0 0-0.2155 0.60341z"/>
     <path d="m-2408.5 872.3 2.7728 2.9883a0.37354 0.37354 0 0 0 0.3736 0.10057l6.0916-1.6522a0.37354 0.37354 0 0 0 0.1293-0.63215l-3.0889-2.6148a0.35917 0.35917 0 0 0-0.3161-0.0718l-5.7468 1.2787a0.37354 0.37354 0 0 0-0.2155 0.60341z"/>
     <path d="m-2407 866.37 2.7729 2.9883a0.37354 0.37354 0 0 0 0.3591 0.11494l6.0916-1.6666a0.37354 0.37354 0 0 0 0.1437-0.63215l-3.1033-2.6004a0.38791 0.38791 0 0 0-0.3017-0.0862l-5.7468 1.2787a0.35917 0.35917 0 0 0-0.2155 0.60341z"/>
     <path d="m-2399.8 875.55 2.7728 3.0027a0.33044 0.33044 0 0 0 0.3592 0.10057l6.0916-1.6522a0.37354 0.37354 0 0 0 0.1437-0.63215l-3.1033-2.6148a0.33044 0.33044 0 0 0-0.3017 0l-5.7468 1.2787a0.34481 0.34481 0 0 0-0.2155 0.51721z"/>
     <path d="m-2408.2 877.85 2.6436 2.8734a0.44538 0.44538 0 0 0 0.4453 0.12931l5.8761-1.6091a0.44538 0.44538 0 0 0 0.1724-0.77581l-2.8734-2.4711a0.41664 0.41664 0 0 0-0.3879-0.10057l-5.5743 1.2356a0.45974 0.45974 0 0 0-0.3018 0.71835z"/>
     <path d="m-2381.7 860.32 2.8734 3.1464a0.28734 0.28734 0 0 0 0.273 0.0862l6.3214-1.724a0.27297 0.27297 0 0 0 0.1006-0.47411l-3.2613-2.7441a0.24424 0.24424 0 0 0-0.2299 0l-5.991 1.3218a0.25861 0.25861 0 0 0-0.086 0.38791z"/>
     <path d="m-2382.9 866 2.7728 3.0027a0.34481 0.34481 0 0 0 0.3592 0.10057l6.1059-1.6522a0.37354 0.37354 0 0 0 0.1293-0.63214l-3.0889-2.6148a0.35917 0.35917 0 0 0-0.316-0.0718l-5.7468 1.2787a0.35917 0.35917 0 0 0-0.2155 0.58905z"/>
     <path d="m-2391.2 868.27 2.7585 3.0027a0.40228 0.40228 0 0 0 0.3735 0.10057l6.0916-1.6666a0.35917 0.35917 0 0 0 0.1437-0.61778l-3.1033-2.6148a0.35917 0.35917 0 0 0-0.3161-0.0718l-5.7468 1.2643a0.35917 0.35917 0 0 0-0.2011 0.60341z"/>
     <path d="m-2424.5 864.99 3.0458 3.2469a0.35917 0.35917 0 0 0 0.3448 0.11493l6.5658-1.5229a0.35917 0.35917 0 0 0 0.1724-0.61778l-3.4481-3.2469a0.35917 0.35917 0 0 0-0.3305-0.10057l-6.1778 1.5373a0.34481 0.34481 0 0 0-0.1724 0.58904z"/>
     <path d="m-2433.3 867.15 2.8734 3.0889a0.44538 0.44538 0 0 0 0.431 0.14367l6.3502-1.4367a0.44538 0.44538 0 0 0 0.2155-0.76145l-3.29-3.1033a0.41664 0.41664 0 0 0-0.4166-0.11493l-5.9911 1.4367a0.45974 0.45974 0 0 0-0.1724 0.74708z"/>
     <path d="m-2442.7 874.42 2.1694 3.4912a0.44538 0.44538 0 0 0 0.4741 0.20113l7.3559-1.6378a0.45974 0.45974 0 0 0 0.273-0.70398l-2.428-3.3762a0.43101 0.43101 0 0 0-0.4598-0.1724l-7.0973 1.5229a0.44538 0.44538 0 0 0-0.2873 0.67524z"/>
     <path d="m-2490.8 875.69 7.2553-1.6809a0.44538 0.44538 0 0 1 0.431 0.15803l1.2787 1.6809a0.41664 0.41664 0 0 1-0.2443 0.66088l-7.5139 1.7528a0.40228 0.40228 0 0 1-0.4597-0.20114l-1.0201-1.7384a0.43101 0.43101 0 0 1 0.273-0.63215z"/>
     <path d="m-2480.8 873.54 7.1835-1.6809a0.44538 0.44538 0 0 1 0.431 0.15804l1.2787 1.6809a0.41664 0.41664 0 0 1-0.2443 0.66088l-7.5139 1.7528a0.41664 0.41664 0 0 1-0.4597-0.20114l-1.0201-1.7528a0.41664 0.41664 0 0 1 0.3448-0.61778z"/>
     <path d="m-2471.2 871.47 7.2553-1.6809a0.41664 0.41664 0 0 1 0.431 0.15804l1.2787 1.6666a0.43101 0.43101 0 0 1-0.2443 0.67525l-7.5139 1.7528a0.41664 0.41664 0 0 1-0.4598-0.20114l-1.02-1.7528a0.41664 0.41664 0 0 1 0.273-0.61778z"/>
     <path d="m-2461.8 869.33 7.1835-1.6809a0.44538 0.44538 0 0 1 0.431 0.15804l1.2643 1.6809a0.41664 0.41664 0 0 1-0.2299 0.66088l-7.5282 1.7528a0.43101 0.43101 0 0 1-0.4598-0.20113l-1.02-1.7528a0.43101 0.43101 0 0 1 0.3591-0.61778z"/>
     <path d="m-2452.2 867.22 7.1835-1.6666a0.47411 0.47411 0 0 1 0.4597 0.15804l1.2356 1.6378a0.44538 0.44538 0 0 1-0.2586 0.70398l-7.4565 1.7384a0.44538 0.44538 0 0 1-0.4885-0.2155l-0.9913-1.6953a0.44538 0.44538 0 0 1 0.3161-0.66088z"/>
     <path d="m-2443 865.28 7.1835-1.6666a0.44538 0.44538 0 0 1 0.4597 0.17241l1.2356 1.6235a0.44538 0.44538 0 0 1-0.2586 0.70399l-7.4565 1.7384a0.45974 0.45974 0 0 1-0.4885-0.21551l-0.9913-1.6953a0.45974 0.45974 0 0 1 0.3161-0.66088z"/>
     <path d="m-2433.9 863.4 6.6519-1.6235a0.47411 0.47411 0 0 1 0.431 0.1293l1.2931 1.4367a0.45974 0.45974 0 0 1-0.2156 0.74708l-6.58 1.5516a0.43101 0.43101 0 0 1-0.431-0.11494l-1.4367-1.4367a0.44538 0.44538 0 0 1 0.2873-0.68961z"/>
     <path d="m-2425.1 861.33 6.853-1.6666a0.41664 0.41664 0 0 1 0.3592 0.10057l1.4367 1.5085a0.35917 0.35917 0 0 1-0.1724 0.60341l-6.7669 1.6953a0.34481 0.34481 0 0 1-0.3448-0.10057l-1.5229-1.5373a0.35917 0.35917 0 0 1 0.1581-0.60341z"/>
     <path d="m-2416.3 859.29 6.8531-1.6666a0.38791 0.38791 0 0 1 0.3448 0.10057l1.4367 1.5085a0.35917 0.35917 0 0 1-0.1724 0.60341l-6.7669 1.6953a0.34481 0.34481 0 0 1-0.3448-0.10057l-1.4367-1.5373a0.35917 0.35917 0 0 1 0.086-0.60341z"/>
     <path d="m-2407.5 857.49 6.853-1.6666a0.34481 0.34481 0 0 1 0.3449 0.10057l1.4366 1.5085a0.35917 0.35917 0 0 1-0.1867 0.58904l-6.7094 1.7097a0.38791 0.38791 0 0 1-0.3448-0.10057l-1.5085-1.5373a0.35917 0.35917 0 0 1 0.1149-0.60341z"/>
     <path d="m-2399.2 855.49 7.0542-1.724a0.24424 0.24424 0 0 1 0.2586 0.0718l1.5804 1.6666a0.27297 0.27297 0 0 1-0.1293 0.44538l-6.968 1.7528a0.31607 0.31607 0 0 1-0.2586-0.0718l-1.6666-1.6953a0.27297 0.27297 0 0 1 0.1293-0.44537z"/>
     <path d="m-2390.7 853.68 7.0685-1.7097a0.22987 0.22987 0 0 1 0.2443 0.0718l1.5803 1.6522a0.27297 0.27297 0 0 1-0.1293 0.45974l-6.9679 1.7384a0.24424 0.24424 0 0 1-0.2587-0.0718l-1.6665-1.6809a0.27297 0.27297 0 0 1 0.1293-0.45974z"/>
     <path d="m-2382.3 851.76 6.537-1.4367a0.25861 0.25861 0 0 1 0.2729 0.0862l1.2643 1.5516a0.27297 0.27297 0 0 1-0.1436 0.43101l-6.1347 1.6235a0.31607 0.31607 0 0 1-0.2586-0.0718l-1.6666-1.6953a0.27297 0.27297 0 0 1 0.1293-0.48848z"/>
     <path d="m-2374.3 849.92 6.5369-1.4367a0.28734 0.28734 0 0 1 0.273 0.0862l1.2499 1.5516a0.25861 0.25861 0 0 1-0.1293 0.43101l-6.1347 1.6235a0.27297 0.27297 0 0 1-0.2729-0.0718l-1.6522-1.6809a0.27297 0.27297 0 0 1 0.1293-0.50285z"/>
     <path d="m-2485.7 884.32 2.4136 3.4337a0.40228 0.40228 0 0 0 0.4311 0.1724l12.571-2.9452a0.41664 0.41664 0 0 0 0.2443-0.66088l-2.6723-3.5055a0.41664 0.41664 0 0 0-0.431-0.15803l-12.312 3.0171a0.41664 0.41664 0 0 0-0.2442 0.64651z"/>
     <path d="m-2481.9 888.97 2.3993 3.836a0.44538 0.44538 0 0 0 0.4597 0.18677l15.186-3.6205a0.41664 0.41664 0 0 0 0.2299-0.67525l-3.0027-3.721a0.44538 0.44538 0 0 0-0.4311-0.14366l-14.582 3.5055a0.41664 0.41664 0 0 0-0.2586 0.63214z"/>
     <path d="m-2478.5 894.04 2.8734 4.1521a0.41664 0.41664 0 0 0 0.4454 0.15803l20.114-4.971a0.41664 0.41664 0 0 0 0.2298-0.66088l-3.2325-4.1664a0.41664 0.41664 0 0 0-0.431-0.14367l-19.884 4.971a0.43101 0.43101 0 0 0-0.115 0.66088z"/>
     <path d="m-2432.4 889.5 3.6779 4.425a0.43101 0.43101 0 0 0 0.4454 0.14367l44.265-11.034a0.45974 0.45974 0 0 0 0.2012-0.76145l-4.5113-4.4825a0.43101 0.43101 0 0 0-0.431-0.11493l-43.417 11.091a0.45974 0.45974 0 0 0-0.2298 0.73272z"/>
     <path d="m-2386.8 878.05 4.3101 4.3101a0.37354 0.37354 0 0 0 0.3592 0.0862l9.0656-2.428a0.35917 0.35917 0 0 0 0.158-0.60341l-4.4969-4.3963a0.34481 0.34481 0 0 0-0.3448-0.10057l-8.9219 2.4711a0.37354 0.37354 0 0 0-0.1293 0.66088z"/>
     <path d="m-2364.9 875.31 1.9826 2.0832a0.24424 0.24424 0 0 0 0.2586 0.0718l6.7094-1.7959a0.27297 0.27297 0 0 0 0.115-0.45974l-2.385-2.2412a0.25861 0.25861 0 0 0-0.2586-0.0718l-6.3071 1.9683a0.27297 0.27297 0 0 0-0.1149 0.44538z"/>
     <path d="m-2359.1 870.84 2.3562 2.4711a0.25861 0.25861 0 0 0 0.2874 0l6.1634-2.1263a0.27297 0.27297 0 0 0 0.1006-0.45975l-2.3562-2.0114a0.2155 0.2155 0 0 0-0.2443 0l-6.2209 1.7384a0.27297 0.27297 0 0 0-0.086 0.38791z"/>
     <path d="m-2354.6 875.11-1.6953-1.3649a0.27297 0.27297 0 0 1 0-0.47411l6.149-2.1263a0.27297 0.27297 0 0 1 0.273 0l1.9252 1.8677a0.27297 0.27297 0 0 1-0.1293 0.44538l-6.3646 1.6522a0.25861 0.25861 0 0 1-0.158 0z"/>
     <path d="m-2366.2 867.28 3.4193 3.3044a0.28734 0.28734 0 0 0 0.2586 0l16.493-4.3101a0.27297 0.27297 0 0 0 0.1149-0.47411l-4.0084-3.3044a0.30171 0.30171 0 0 0-0.2442 0l-15.919 4.3101a0.27297 0.27297 0 0 0-0.1149 0.47411z"/>
     <path d="m-2367.4 862.18 3.5343 3.1464a0.24424 0.24424 0 0 0 0.2443 0l12.413-2.8734a0.25861 0.25861 0 0 0 0.1006-0.45974l-4.0659-3.405a0.22987 0.22987 0 0 0-0.2298 0l-11.882 3.1895a0.27297 0.27297 0 0 0-0.115 0.40228z"/>
     <path d="m-2366.2 856.76 3.3475 3.0027a0.30171 0.30171 0 0 0 0.2443 0l6.3645-1.4367a0.25861 0.25861 0 0 0 0.115-0.45974l-3.9653-3.4193a0.2155 0.2155 0 0 0-0.2442 0l-5.7468 1.8533a0.25861 0.25861 0 0 0-0.115 0.45974z"/>
     <path d="m-2374.9 853.79 3.2325 2.9452a0.25861 0.25861 0 0 0 0.2443 0l10.057-2.3849a0.27297 0.27297 0 0 0 0.1005-0.47411l-3.8503-3.2326a0.25861 0.25861 0 0 0-0.2443 0l-9.4965 2.6723a0.27297 0.27297 0 0 0-0.043 0.47411z"/>
    </g>
   </g>
  </g>
 </g>
</svg>
